M48
; DRILL file {KiCad (5.1.10)-1} date 05/26/21 18:35:13
; FORMAT={-:-/ absolute / inch / decimal}
; #@! TF.CreationDate,2021-05-26T18:35:13+08:00
; #@! TF.GenerationSoftware,Kicad,Pcbnew,(5.1.10)-1
; #@! TF.FileFunction,Plated,1,2,PTH
FMAT,2
INCH
T1C0.0157
T2C0.0276
T3C0.0579
%
G90
G05
T1
X3.1562Y-5.4375
X3.2812Y-4.7812
X3.4375Y-4.75
X3.4688Y-5.125
X3.4795Y-4.9267
X3.5625Y-5.375
X4.0312Y-5.3125
X4.125Y-4.9062
T3
X4.505Y-4.49
X4.5062Y-5.2437
X4.5566Y-4.4325
X4.5578Y-5.1863
X4.7534Y-4.4128
X4.7547Y-5.1666
X4.755Y-4.39
X4.7562Y-5.1437
X5.252Y-4.4875
X5.2525Y-5.2375
X5.3036Y-4.43
X5.3041Y-5.18
X5.5004Y-4.4103
X5.5009Y-5.1603
X5.502Y-4.3875
X5.5025Y-5.1375
T2
G00X2.8563Y-4.2664
M15
G01X2.8563Y-4.3136
M16
G05
G00X2.8563Y-4.4435
M15
G01X2.8563Y-4.4908
M16
G05
G00X3.1437Y-4.2664
M15
G01X3.1437Y-4.3136
M16
G05
G00X3.1437Y-4.4435
M15
G01X3.1437Y-4.4908
M16
G05
T0
M30
