%TF.GenerationSoftware,KiCad,Pcbnew,(5.1.10)-1*%
%TF.CreationDate,2021-05-26T18:35:01+08:00*%
%TF.ProjectId,FirstPCB,46697273-7450-4434-922e-6b696361645f,rev?*%
%TF.SameCoordinates,Original*%
%TF.FileFunction,Copper,L2,Bot*%
%TF.FilePolarity,Positive*%
%FSLAX46Y46*%
G04 Gerber Fmt 4.6, Leading zero omitted, Abs format (unit mm)*
G04 Created by KiCad (PCBNEW (5.1.10)-1) date 2021-05-26 18:35:01*
%MOMM*%
%LPD*%
G01*
G04 APERTURE LIST*
%TA.AperFunction,ComponentPad*%
%ADD10C,2.250000*%
%TD*%
%TA.AperFunction,SMDPad,CuDef*%
%ADD11R,1.200000X0.900000*%
%TD*%
%TA.AperFunction,SMDPad,CuDef*%
%ADD12R,1.400000X1.200000*%
%TD*%
%TA.AperFunction,ComponentPad*%
%ADD13O,1.700000X2.700000*%
%TD*%
%TA.AperFunction,SMDPad,CuDef*%
%ADD14R,0.500000X2.250000*%
%TD*%
%TA.AperFunction,SMDPad,CuDef*%
%ADD15R,0.550000X1.500000*%
%TD*%
%TA.AperFunction,SMDPad,CuDef*%
%ADD16R,1.500000X0.550000*%
%TD*%
%TA.AperFunction,SMDPad,CuDef*%
%ADD17R,1.800000X1.100000*%
%TD*%
%TA.AperFunction,ViaPad*%
%ADD18C,0.800000*%
%TD*%
%TA.AperFunction,Conductor*%
%ADD19C,0.254000*%
%TD*%
%TA.AperFunction,Conductor*%
%ADD20C,0.381000*%
%TD*%
%TA.AperFunction,Conductor*%
%ADD21C,0.203200*%
%TD*%
%TA.AperFunction,Conductor*%
%ADD22C,0.100000*%
%TD*%
G04 APERTURE END LIST*
D10*
%TO.P,MX3,1*%
%TO.N,COL0*%
X115768750Y-131731250D03*
%TA.AperFunction,ComponentPad*%
G36*
G01*
X113707438Y-134028600D02*
X113707433Y-134028595D01*
G75*
G02*
X113621405Y-132439933I751317J837345D01*
G01*
X114931407Y-130979933D01*
G75*
G02*
X116520069Y-130893905I837345J-751317D01*
G01*
X116520069Y-130893905D01*
G75*
G02*
X116606097Y-132482567I-751317J-837345D01*
G01*
X115296095Y-133942567D01*
G75*
G02*
X113707433Y-134028595I-837345J751317D01*
G01*
G37*
%TD.AperFunction*%
%TO.P,MX3,2*%
%TO.N,Net-(D3-Pad2)*%
X120808750Y-130651250D03*
%TA.AperFunction,ComponentPad*%
G36*
G01*
X120692233Y-132353645D02*
X120691347Y-132353584D01*
G75*
G02*
X119646416Y-131153847I77403J1122334D01*
G01*
X119686416Y-130573847D01*
G75*
G02*
X120886153Y-129528916I1122334J-77403D01*
G01*
X120886153Y-129528916D01*
G75*
G02*
X121931084Y-130728653I-77403J-1122334D01*
G01*
X121891084Y-131308653D01*
G75*
G02*
X120691347Y-132353584I-1122334J77403D01*
G01*
G37*
%TD.AperFunction*%
%TD*%
%TO.P,MX1,1*%
%TO.N,COL0*%
X115737000Y-112586000D03*
%TA.AperFunction,ComponentPad*%
G36*
G01*
X113675688Y-114883350D02*
X113675683Y-114883345D01*
G75*
G02*
X113589655Y-113294683I751317J837345D01*
G01*
X114899657Y-111834683D01*
G75*
G02*
X116488319Y-111748655I837345J-751317D01*
G01*
X116488319Y-111748655D01*
G75*
G02*
X116574347Y-113337317I-751317J-837345D01*
G01*
X115264345Y-114797317D01*
G75*
G02*
X113675683Y-114883345I-837345J751317D01*
G01*
G37*
%TD.AperFunction*%
%TO.P,MX1,2*%
%TO.N,Net-(D1-Pad2)*%
X120777000Y-111506000D03*
%TA.AperFunction,ComponentPad*%
G36*
G01*
X120660483Y-113208395D02*
X120659597Y-113208334D01*
G75*
G02*
X119614666Y-112008597I77403J1122334D01*
G01*
X119654666Y-111428597D01*
G75*
G02*
X120854403Y-110383666I1122334J-77403D01*
G01*
X120854403Y-110383666D01*
G75*
G02*
X121899334Y-111583403I-77403J-1122334D01*
G01*
X121859334Y-112163403D01*
G75*
G02*
X120659597Y-113208334I-1122334J77403D01*
G01*
G37*
%TD.AperFunction*%
%TD*%
D11*
%TO.P,D2,2*%
%TO.N,Net-(D2-Pad2)*%
X145034000Y-114904250D03*
%TO.P,D2,1*%
%TO.N,ROW0*%
X145034000Y-118204250D03*
%TD*%
D12*
%TO.P,Y1,4*%
%TO.N,GND*%
X95250000Y-116000000D03*
%TO.P,Y1,3*%
%TO.N,Net-(C1-Pad2)*%
X97450000Y-116000000D03*
%TO.P,Y1,2*%
%TO.N,GND*%
X97450000Y-114300000D03*
%TO.P,Y1,1*%
%TO.N,Net-(C2-Pad2)*%
X95250000Y-114300000D03*
%TD*%
D13*
%TO.P,USB1,6*%
%TO.N,Net-(USB1-Pad6)*%
X72550000Y-108966000D03*
X79850000Y-108966000D03*
X79850000Y-113466000D03*
X72550000Y-113466000D03*
D14*
%TO.P,USB1,5*%
%TO.N,VCC*%
X74600000Y-113466000D03*
%TO.P,USB1,4*%
%TO.N,D-*%
X75400000Y-113466000D03*
%TO.P,USB1,3*%
%TO.N,D+*%
X76200000Y-113466000D03*
%TO.P,USB1,2*%
%TO.N,Net-(USB1-Pad2)*%
X77000000Y-113466000D03*
%TO.P,USB1,1*%
%TO.N,GND*%
X77800000Y-113466000D03*
%TD*%
D15*
%TO.P,U1,44*%
%TO.N,+5V*%
X91662750Y-131906250D03*
%TO.P,U1,43*%
%TO.N,GND*%
X92462750Y-131906250D03*
%TO.P,U1,42*%
%TO.N,Net-(U1-Pad42)*%
X93262750Y-131906250D03*
%TO.P,U1,41*%
%TO.N,Net-(U1-Pad41)*%
X94062750Y-131906250D03*
%TO.P,U1,40*%
%TO.N,Net-(U1-Pad40)*%
X94862750Y-131906250D03*
%TO.P,U1,39*%
%TO.N,Net-(U1-Pad39)*%
X95662750Y-131906250D03*
%TO.P,U1,38*%
%TO.N,Net-(U1-Pad38)*%
X96462750Y-131906250D03*
%TO.P,U1,37*%
%TO.N,Net-(U1-Pad37)*%
X97262750Y-131906250D03*
%TO.P,U1,36*%
%TO.N,Net-(U1-Pad36)*%
X98062750Y-131906250D03*
%TO.P,U1,35*%
%TO.N,GND*%
X98862750Y-131906250D03*
%TO.P,U1,34*%
%TO.N,+5V*%
X99662750Y-131906250D03*
D16*
%TO.P,U1,33*%
%TO.N,Net-(R4-Pad1)*%
X101362750Y-130206250D03*
%TO.P,U1,32*%
%TO.N,Net-(U1-Pad32)*%
X101362750Y-129406250D03*
%TO.P,U1,31*%
%TO.N,Net-(U1-Pad31)*%
X101362750Y-128606250D03*
%TO.P,U1,30*%
%TO.N,ROW1*%
X101362750Y-127806250D03*
%TO.P,U1,29*%
%TO.N,COL0*%
X101362750Y-127006250D03*
%TO.P,U1,28*%
%TO.N,COL1*%
X101362750Y-126206250D03*
%TO.P,U1,27*%
%TO.N,ROW0*%
X101362750Y-125406250D03*
%TO.P,U1,26*%
%TO.N,Net-(U1-Pad26)*%
X101362750Y-124606250D03*
%TO.P,U1,25*%
%TO.N,Net-(U1-Pad25)*%
X101362750Y-123806250D03*
%TO.P,U1,24*%
%TO.N,+5V*%
X101362750Y-123006250D03*
%TO.P,U1,23*%
%TO.N,GND*%
X101362750Y-122206250D03*
D15*
%TO.P,U1,22*%
%TO.N,Net-(U1-Pad22)*%
X99662750Y-120506250D03*
%TO.P,U1,21*%
%TO.N,Net-(U1-Pad21)*%
X98862750Y-120506250D03*
%TO.P,U1,20*%
%TO.N,Net-(U1-Pad20)*%
X98062750Y-120506250D03*
%TO.P,U1,19*%
%TO.N,Net-(U1-Pad19)*%
X97262750Y-120506250D03*
%TO.P,U1,18*%
%TO.N,Net-(U1-Pad18)*%
X96462750Y-120506250D03*
%TO.P,U1,17*%
%TO.N,Net-(C1-Pad2)*%
X95662750Y-120506250D03*
%TO.P,U1,16*%
%TO.N,Net-(C2-Pad2)*%
X94862750Y-120506250D03*
%TO.P,U1,15*%
%TO.N,GND*%
X94062750Y-120506250D03*
%TO.P,U1,14*%
%TO.N,+5V*%
X93262750Y-120506250D03*
%TO.P,U1,13*%
%TO.N,Net-(R1-Pad2)*%
X92462750Y-120506250D03*
%TO.P,U1,12*%
%TO.N,Net-(U1-Pad12)*%
X91662750Y-120506250D03*
D16*
%TO.P,U1,11*%
%TO.N,Net-(U1-Pad11)*%
X89962750Y-122206250D03*
%TO.P,U1,10*%
%TO.N,Net-(U1-Pad10)*%
X89962750Y-123006250D03*
%TO.P,U1,9*%
%TO.N,Net-(U1-Pad9)*%
X89962750Y-123806250D03*
%TO.P,U1,8*%
%TO.N,Net-(U1-Pad8)*%
X89962750Y-124606250D03*
%TO.P,U1,7*%
%TO.N,+5V*%
X89962750Y-125406250D03*
%TO.P,U1,6*%
%TO.N,Net-(C3-Pad1)*%
X89962750Y-126206250D03*
%TO.P,U1,5*%
%TO.N,GND*%
X89962750Y-127006250D03*
%TO.P,U1,4*%
%TO.N,Net-(R2-Pad1)*%
X89962750Y-127806250D03*
%TO.P,U1,3*%
%TO.N,Net-(R3-Pad1)*%
X89962750Y-128606250D03*
%TO.P,U1,2*%
%TO.N,+5V*%
X89962750Y-129406250D03*
%TO.P,U1,1*%
%TO.N,Net-(U1-Pad1)*%
X89962750Y-130206250D03*
%TD*%
D17*
%TO.P,SW1,4*%
%TO.N,N/C*%
X78506250Y-142343750D03*
%TO.P,SW1,3*%
X72306250Y-138643750D03*
%TO.P,SW1,2*%
%TO.N,Net-(R1-Pad2)*%
X78506250Y-138643750D03*
%TO.P,SW1,1*%
%TO.N,GND*%
X72306250Y-142343750D03*
%TD*%
%TO.P,R4,2*%
%TO.N,GND*%
%TA.AperFunction,SMDPad,CuDef*%
G36*
G01*
X103531249Y-133075000D02*
X104431251Y-133075000D01*
G75*
G02*
X104681250Y-133324999I0J-249999D01*
G01*
X104681250Y-133850001D01*
G75*
G02*
X104431251Y-134100000I-249999J0D01*
G01*
X103531249Y-134100000D01*
G75*
G02*
X103281250Y-133850001I0J249999D01*
G01*
X103281250Y-133324999D01*
G75*
G02*
X103531249Y-133075000I249999J0D01*
G01*
G37*
%TD.AperFunction*%
%TO.P,R4,1*%
%TO.N,Net-(R4-Pad1)*%
%TA.AperFunction,SMDPad,CuDef*%
G36*
G01*
X103531249Y-131250000D02*
X104431251Y-131250000D01*
G75*
G02*
X104681250Y-131499999I0J-249999D01*
G01*
X104681250Y-132025001D01*
G75*
G02*
X104431251Y-132275000I-249999J0D01*
G01*
X103531249Y-132275000D01*
G75*
G02*
X103281250Y-132025001I0J249999D01*
G01*
X103281250Y-131499999D01*
G75*
G02*
X103531249Y-131250000I249999J0D01*
G01*
G37*
%TD.AperFunction*%
%TD*%
%TO.P,R3,2*%
%TO.N,D-*%
%TA.AperFunction,SMDPad,CuDef*%
G36*
G01*
X75062501Y-117868750D02*
X74162499Y-117868750D01*
G75*
G02*
X73912500Y-117618751I0J249999D01*
G01*
X73912500Y-117093749D01*
G75*
G02*
X74162499Y-116843750I249999J0D01*
G01*
X75062501Y-116843750D01*
G75*
G02*
X75312500Y-117093749I0J-249999D01*
G01*
X75312500Y-117618751D01*
G75*
G02*
X75062501Y-117868750I-249999J0D01*
G01*
G37*
%TD.AperFunction*%
%TO.P,R3,1*%
%TO.N,Net-(R3-Pad1)*%
%TA.AperFunction,SMDPad,CuDef*%
G36*
G01*
X75062501Y-119693750D02*
X74162499Y-119693750D01*
G75*
G02*
X73912500Y-119443751I0J249999D01*
G01*
X73912500Y-118918749D01*
G75*
G02*
X74162499Y-118668750I249999J0D01*
G01*
X75062501Y-118668750D01*
G75*
G02*
X75312500Y-118918749I0J-249999D01*
G01*
X75312500Y-119443751D01*
G75*
G02*
X75062501Y-119693750I-249999J0D01*
G01*
G37*
%TD.AperFunction*%
%TD*%
%TO.P,R2,2*%
%TO.N,D+*%
%TA.AperFunction,SMDPad,CuDef*%
G36*
G01*
X77443751Y-117868750D02*
X76543749Y-117868750D01*
G75*
G02*
X76293750Y-117618751I0J249999D01*
G01*
X76293750Y-117093749D01*
G75*
G02*
X76543749Y-116843750I249999J0D01*
G01*
X77443751Y-116843750D01*
G75*
G02*
X77693750Y-117093749I0J-249999D01*
G01*
X77693750Y-117618751D01*
G75*
G02*
X77443751Y-117868750I-249999J0D01*
G01*
G37*
%TD.AperFunction*%
%TO.P,R2,1*%
%TO.N,Net-(R2-Pad1)*%
%TA.AperFunction,SMDPad,CuDef*%
G36*
G01*
X77443751Y-119693750D02*
X76543749Y-119693750D01*
G75*
G02*
X76293750Y-119443751I0J249999D01*
G01*
X76293750Y-118918749D01*
G75*
G02*
X76543749Y-118668750I249999J0D01*
G01*
X77443751Y-118668750D01*
G75*
G02*
X77693750Y-118918749I0J-249999D01*
G01*
X77693750Y-119443751D01*
G75*
G02*
X77443751Y-119693750I-249999J0D01*
G01*
G37*
%TD.AperFunction*%
%TD*%
%TO.P,R1,2*%
%TO.N,Net-(R1-Pad2)*%
%TA.AperFunction,SMDPad,CuDef*%
G36*
G01*
X82893749Y-119343750D02*
X83793751Y-119343750D01*
G75*
G02*
X84043750Y-119593749I0J-249999D01*
G01*
X84043750Y-120118751D01*
G75*
G02*
X83793751Y-120368750I-249999J0D01*
G01*
X82893749Y-120368750D01*
G75*
G02*
X82643750Y-120118751I0J249999D01*
G01*
X82643750Y-119593749D01*
G75*
G02*
X82893749Y-119343750I249999J0D01*
G01*
G37*
%TD.AperFunction*%
%TO.P,R1,1*%
%TO.N,+5V*%
%TA.AperFunction,SMDPad,CuDef*%
G36*
G01*
X82893749Y-117518750D02*
X83793751Y-117518750D01*
G75*
G02*
X84043750Y-117768749I0J-249999D01*
G01*
X84043750Y-118293751D01*
G75*
G02*
X83793751Y-118543750I-249999J0D01*
G01*
X82893749Y-118543750D01*
G75*
G02*
X82643750Y-118293751I0J249999D01*
G01*
X82643750Y-117768749D01*
G75*
G02*
X82893749Y-117518750I249999J0D01*
G01*
G37*
%TD.AperFunction*%
%TD*%
D10*
%TO.P,MX4,1*%
%TO.N,COL1*%
X134723500Y-131572500D03*
%TA.AperFunction,ComponentPad*%
G36*
G01*
X132662188Y-133869850D02*
X132662183Y-133869845D01*
G75*
G02*
X132576155Y-132281183I751317J837345D01*
G01*
X133886157Y-130821183D01*
G75*
G02*
X135474819Y-130735155I837345J-751317D01*
G01*
X135474819Y-130735155D01*
G75*
G02*
X135560847Y-132323817I-751317J-837345D01*
G01*
X134250845Y-133783817D01*
G75*
G02*
X132662183Y-133869845I-837345J751317D01*
G01*
G37*
%TD.AperFunction*%
%TO.P,MX4,2*%
%TO.N,Net-(D4-Pad2)*%
X139763500Y-130492500D03*
%TA.AperFunction,ComponentPad*%
G36*
G01*
X139646983Y-132194895D02*
X139646097Y-132194834D01*
G75*
G02*
X138601166Y-130995097I77403J1122334D01*
G01*
X138641166Y-130415097D01*
G75*
G02*
X139840903Y-129370166I1122334J-77403D01*
G01*
X139840903Y-129370166D01*
G75*
G02*
X140885834Y-130569903I-77403J-1122334D01*
G01*
X140845834Y-131149903D01*
G75*
G02*
X139646097Y-132194834I-1122334J77403D01*
G01*
G37*
%TD.AperFunction*%
%TD*%
%TO.P,MX2,1*%
%TO.N,COL1*%
X134710500Y-112522500D03*
%TA.AperFunction,ComponentPad*%
G36*
G01*
X132649188Y-114819850D02*
X132649183Y-114819845D01*
G75*
G02*
X132563155Y-113231183I751317J837345D01*
G01*
X133873157Y-111771183D01*
G75*
G02*
X135461819Y-111685155I837345J-751317D01*
G01*
X135461819Y-111685155D01*
G75*
G02*
X135547847Y-113273817I-751317J-837345D01*
G01*
X134237845Y-114733817D01*
G75*
G02*
X132649183Y-114819845I-837345J751317D01*
G01*
G37*
%TD.AperFunction*%
%TO.P,MX2,2*%
%TO.N,Net-(D2-Pad2)*%
X139750500Y-111442500D03*
%TA.AperFunction,ComponentPad*%
G36*
G01*
X139633983Y-113144895D02*
X139633097Y-113144834D01*
G75*
G02*
X138588166Y-111945097I77403J1122334D01*
G01*
X138628166Y-111365097D01*
G75*
G02*
X139827903Y-110320166I1122334J-77403D01*
G01*
X139827903Y-110320166D01*
G75*
G02*
X140872834Y-111519903I-77403J-1122334D01*
G01*
X140832834Y-112099903D01*
G75*
G02*
X139633097Y-113144834I-1122334J77403D01*
G01*
G37*
%TD.AperFunction*%
%TD*%
%TO.P,F1,2*%
%TO.N,VCC*%
%TA.AperFunction,SMDPad,CuDef*%
G36*
G01*
X72856250Y-122862500D02*
X71606250Y-122862500D01*
G75*
G02*
X71356250Y-122612500I0J250000D01*
G01*
X71356250Y-121862500D01*
G75*
G02*
X71606250Y-121612500I250000J0D01*
G01*
X72856250Y-121612500D01*
G75*
G02*
X73106250Y-121862500I0J-250000D01*
G01*
X73106250Y-122612500D01*
G75*
G02*
X72856250Y-122862500I-250000J0D01*
G01*
G37*
%TD.AperFunction*%
%TO.P,F1,1*%
%TO.N,+5V*%
%TA.AperFunction,SMDPad,CuDef*%
G36*
G01*
X72856250Y-125662500D02*
X71606250Y-125662500D01*
G75*
G02*
X71356250Y-125412500I0J250000D01*
G01*
X71356250Y-124662500D01*
G75*
G02*
X71606250Y-124412500I250000J0D01*
G01*
X72856250Y-124412500D01*
G75*
G02*
X73106250Y-124662500I0J-250000D01*
G01*
X73106250Y-125412500D01*
G75*
G02*
X72856250Y-125662500I-250000J0D01*
G01*
G37*
%TD.AperFunction*%
%TD*%
D11*
%TO.P,D4,2*%
%TO.N,Net-(D4-Pad2)*%
X145034000Y-133954250D03*
%TO.P,D4,1*%
%TO.N,ROW1*%
X145034000Y-137254250D03*
%TD*%
%TO.P,D3,2*%
%TO.N,Net-(D3-Pad2)*%
X125984000Y-133954250D03*
%TO.P,D3,1*%
%TO.N,ROW1*%
X125984000Y-137254250D03*
%TD*%
%TO.P,D1,2*%
%TO.N,Net-(D1-Pad2)*%
X125984000Y-114904250D03*
%TO.P,D1,1*%
%TO.N,ROW0*%
X125984000Y-118204250D03*
%TD*%
%TO.P,C7,2*%
%TO.N,GND*%
%TA.AperFunction,SMDPad,CuDef*%
G36*
G01*
X91887500Y-135412500D02*
X91887500Y-134462500D01*
G75*
G02*
X92137500Y-134212500I250000J0D01*
G01*
X92637500Y-134212500D01*
G75*
G02*
X92887500Y-134462500I0J-250000D01*
G01*
X92887500Y-135412500D01*
G75*
G02*
X92637500Y-135662500I-250000J0D01*
G01*
X92137500Y-135662500D01*
G75*
G02*
X91887500Y-135412500I0J250000D01*
G01*
G37*
%TD.AperFunction*%
%TO.P,C7,1*%
%TO.N,+5V*%
%TA.AperFunction,SMDPad,CuDef*%
G36*
G01*
X89987500Y-135412500D02*
X89987500Y-134462500D01*
G75*
G02*
X90237500Y-134212500I250000J0D01*
G01*
X90737500Y-134212500D01*
G75*
G02*
X90987500Y-134462500I0J-250000D01*
G01*
X90987500Y-135412500D01*
G75*
G02*
X90737500Y-135662500I-250000J0D01*
G01*
X90237500Y-135662500D01*
G75*
G02*
X89987500Y-135412500I0J250000D01*
G01*
G37*
%TD.AperFunction*%
%TD*%
%TO.P,C6,2*%
%TO.N,GND*%
%TA.AperFunction,SMDPad,CuDef*%
G36*
G01*
X99562500Y-134462500D02*
X99562500Y-135412500D01*
G75*
G02*
X99312500Y-135662500I-250000J0D01*
G01*
X98812500Y-135662500D01*
G75*
G02*
X98562500Y-135412500I0J250000D01*
G01*
X98562500Y-134462500D01*
G75*
G02*
X98812500Y-134212500I250000J0D01*
G01*
X99312500Y-134212500D01*
G75*
G02*
X99562500Y-134462500I0J-250000D01*
G01*
G37*
%TD.AperFunction*%
%TO.P,C6,1*%
%TO.N,+5V*%
%TA.AperFunction,SMDPad,CuDef*%
G36*
G01*
X101462500Y-134462500D02*
X101462500Y-135412500D01*
G75*
G02*
X101212500Y-135662500I-250000J0D01*
G01*
X100712500Y-135662500D01*
G75*
G02*
X100462500Y-135412500I0J250000D01*
G01*
X100462500Y-134462500D01*
G75*
G02*
X100712500Y-134212500I250000J0D01*
G01*
X101212500Y-134212500D01*
G75*
G02*
X101462500Y-134462500I0J-250000D01*
G01*
G37*
%TD.AperFunction*%
%TD*%
%TO.P,C5,2*%
%TO.N,GND*%
%TA.AperFunction,SMDPad,CuDef*%
G36*
G01*
X87787500Y-117818750D02*
X86837500Y-117818750D01*
G75*
G02*
X86587500Y-117568750I0J250000D01*
G01*
X86587500Y-117068750D01*
G75*
G02*
X86837500Y-116818750I250000J0D01*
G01*
X87787500Y-116818750D01*
G75*
G02*
X88037500Y-117068750I0J-250000D01*
G01*
X88037500Y-117568750D01*
G75*
G02*
X87787500Y-117818750I-250000J0D01*
G01*
G37*
%TD.AperFunction*%
%TO.P,C5,1*%
%TO.N,+5V*%
%TA.AperFunction,SMDPad,CuDef*%
G36*
G01*
X87787500Y-119718750D02*
X86837500Y-119718750D01*
G75*
G02*
X86587500Y-119468750I0J250000D01*
G01*
X86587500Y-118968750D01*
G75*
G02*
X86837500Y-118718750I250000J0D01*
G01*
X87787500Y-118718750D01*
G75*
G02*
X88037500Y-118968750I0J-250000D01*
G01*
X88037500Y-119468750D01*
G75*
G02*
X87787500Y-119718750I-250000J0D01*
G01*
G37*
%TD.AperFunction*%
%TD*%
%TO.P,C4,2*%
%TO.N,GND*%
%TA.AperFunction,SMDPad,CuDef*%
G36*
G01*
X105250000Y-121787500D02*
X104300000Y-121787500D01*
G75*
G02*
X104050000Y-121537500I0J250000D01*
G01*
X104050000Y-121037500D01*
G75*
G02*
X104300000Y-120787500I250000J0D01*
G01*
X105250000Y-120787500D01*
G75*
G02*
X105500000Y-121037500I0J-250000D01*
G01*
X105500000Y-121537500D01*
G75*
G02*
X105250000Y-121787500I-250000J0D01*
G01*
G37*
%TD.AperFunction*%
%TO.P,C4,1*%
%TO.N,+5V*%
%TA.AperFunction,SMDPad,CuDef*%
G36*
G01*
X105250000Y-123687500D02*
X104300000Y-123687500D01*
G75*
G02*
X104050000Y-123437500I0J250000D01*
G01*
X104050000Y-122937500D01*
G75*
G02*
X104300000Y-122687500I250000J0D01*
G01*
X105250000Y-122687500D01*
G75*
G02*
X105500000Y-122937500I0J-250000D01*
G01*
X105500000Y-123437500D01*
G75*
G02*
X105250000Y-123687500I-250000J0D01*
G01*
G37*
%TD.AperFunction*%
%TD*%
%TO.P,C3,2*%
%TO.N,GND*%
%TA.AperFunction,SMDPad,CuDef*%
G36*
G01*
X86043750Y-125706250D02*
X86993750Y-125706250D01*
G75*
G02*
X87243750Y-125956250I0J-250000D01*
G01*
X87243750Y-126456250D01*
G75*
G02*
X86993750Y-126706250I-250000J0D01*
G01*
X86043750Y-126706250D01*
G75*
G02*
X85793750Y-126456250I0J250000D01*
G01*
X85793750Y-125956250D01*
G75*
G02*
X86043750Y-125706250I250000J0D01*
G01*
G37*
%TD.AperFunction*%
%TO.P,C3,1*%
%TO.N,Net-(C3-Pad1)*%
%TA.AperFunction,SMDPad,CuDef*%
G36*
G01*
X86043750Y-123806250D02*
X86993750Y-123806250D01*
G75*
G02*
X87243750Y-124056250I0J-250000D01*
G01*
X87243750Y-124556250D01*
G75*
G02*
X86993750Y-124806250I-250000J0D01*
G01*
X86043750Y-124806250D01*
G75*
G02*
X85793750Y-124556250I0J250000D01*
G01*
X85793750Y-124056250D01*
G75*
G02*
X86043750Y-123806250I250000J0D01*
G01*
G37*
%TD.AperFunction*%
%TD*%
%TO.P,C2,2*%
%TO.N,Net-(C2-Pad2)*%
%TA.AperFunction,SMDPad,CuDef*%
G36*
G01*
X92931000Y-114802500D02*
X91981000Y-114802500D01*
G75*
G02*
X91731000Y-114552500I0J250000D01*
G01*
X91731000Y-114052500D01*
G75*
G02*
X91981000Y-113802500I250000J0D01*
G01*
X92931000Y-113802500D01*
G75*
G02*
X93181000Y-114052500I0J-250000D01*
G01*
X93181000Y-114552500D01*
G75*
G02*
X92931000Y-114802500I-250000J0D01*
G01*
G37*
%TD.AperFunction*%
%TO.P,C2,1*%
%TO.N,GND*%
%TA.AperFunction,SMDPad,CuDef*%
G36*
G01*
X92931000Y-116702500D02*
X91981000Y-116702500D01*
G75*
G02*
X91731000Y-116452500I0J250000D01*
G01*
X91731000Y-115952500D01*
G75*
G02*
X91981000Y-115702500I250000J0D01*
G01*
X92931000Y-115702500D01*
G75*
G02*
X93181000Y-115952500I0J-250000D01*
G01*
X93181000Y-116452500D01*
G75*
G02*
X92931000Y-116702500I-250000J0D01*
G01*
G37*
%TD.AperFunction*%
%TD*%
%TO.P,C1,2*%
%TO.N,Net-(C1-Pad2)*%
%TA.AperFunction,SMDPad,CuDef*%
G36*
G01*
X99918500Y-115702500D02*
X100868500Y-115702500D01*
G75*
G02*
X101118500Y-115952500I0J-250000D01*
G01*
X101118500Y-116452500D01*
G75*
G02*
X100868500Y-116702500I-250000J0D01*
G01*
X99918500Y-116702500D01*
G75*
G02*
X99668500Y-116452500I0J250000D01*
G01*
X99668500Y-115952500D01*
G75*
G02*
X99918500Y-115702500I250000J0D01*
G01*
G37*
%TD.AperFunction*%
%TO.P,C1,1*%
%TO.N,GND*%
%TA.AperFunction,SMDPad,CuDef*%
G36*
G01*
X99918500Y-113802500D02*
X100868500Y-113802500D01*
G75*
G02*
X101118500Y-114052500I0J-250000D01*
G01*
X101118500Y-114552500D01*
G75*
G02*
X100868500Y-114802500I-250000J0D01*
G01*
X99918500Y-114802500D01*
G75*
G02*
X99668500Y-114552500I0J250000D01*
G01*
X99668500Y-114052500D01*
G75*
G02*
X99918500Y-113802500I250000J0D01*
G01*
G37*
%TD.AperFunction*%
%TD*%
D18*
%TO.N,+5V*%
X90487500Y-136525000D03*
X87312500Y-120650000D03*
X102393750Y-134937500D03*
X104775000Y-124618750D03*
X88379692Y-125139058D03*
X88106250Y-130175000D03*
%TO.N,Net-(R1-Pad2)*%
X80168750Y-138112500D03*
X83343750Y-121443750D03*
%TD*%
D19*
%TO.N,Net-(C1-Pad2)*%
X95662750Y-117787250D02*
X95662750Y-120506250D01*
X97450000Y-116000000D02*
X95662750Y-117787250D01*
X97652500Y-116202500D02*
X97450000Y-116000000D01*
X100393500Y-116202500D02*
X97652500Y-116202500D01*
D20*
%TO.N,GND*%
X97452500Y-114302500D02*
X97450000Y-114300000D01*
X100393500Y-114302500D02*
X97452500Y-114302500D01*
X95047500Y-116202500D02*
X95250000Y-116000000D01*
X95552902Y-116000000D02*
X95250000Y-116000000D01*
X97450000Y-114300000D02*
X97252902Y-114300000D01*
X91818181Y-113309499D02*
X91340490Y-113787190D01*
X91340490Y-115086990D02*
X92456000Y-116202500D01*
X96459499Y-113309499D02*
X91818181Y-113309499D01*
X91340490Y-113787190D02*
X91340490Y-115086990D01*
X97450000Y-114300000D02*
X96459499Y-113309499D01*
X94062750Y-119578348D02*
X94062750Y-120506250D01*
X92456000Y-116202500D02*
X92456000Y-117062250D01*
X94062750Y-118669000D02*
X94062750Y-119578348D01*
X92456000Y-117062250D02*
X94062750Y-118669000D01*
X87312500Y-117318750D02*
X92712500Y-117318750D01*
D21*
X95650000Y-116000000D02*
X95250000Y-116000000D01*
X97350000Y-114300000D02*
X95650000Y-116000000D01*
X97450000Y-114300000D02*
X97350000Y-114300000D01*
D20*
X98862750Y-129819000D02*
X98862750Y-131906250D01*
X96837500Y-123825000D02*
X96837500Y-127793750D01*
X98456250Y-122206250D02*
X96837500Y-123825000D01*
X101362750Y-122206250D02*
X98456250Y-122206250D01*
X89962750Y-127006250D02*
X91093750Y-127006250D01*
X97631250Y-128587500D02*
X98862750Y-129819000D01*
X96837500Y-127793750D02*
X97631250Y-128587500D01*
X96837500Y-127793750D02*
X92868750Y-127793750D01*
X92081250Y-127006250D02*
X89962750Y-127006250D01*
X92868750Y-127793750D02*
X92081250Y-127006250D01*
X92462750Y-130775250D02*
X92868750Y-130369250D01*
X92462750Y-131906250D02*
X92462750Y-130775250D01*
X92868750Y-130369250D02*
X92868750Y-127793750D01*
X96837500Y-123825000D02*
X96043750Y-123031250D01*
X94062750Y-121637250D02*
X94062750Y-120506250D01*
X95456750Y-123031250D02*
X94062750Y-121637250D01*
X96043750Y-123031250D02*
X95456750Y-123031250D01*
X92387500Y-131981500D02*
X92462750Y-131906250D01*
X92387500Y-134937500D02*
X92387500Y-131981500D01*
X98862750Y-134737750D02*
X98862750Y-131906250D01*
X88750000Y-127006250D02*
X89962750Y-127006250D01*
X102281500Y-121287500D02*
X101362750Y-122206250D01*
X104775000Y-121287500D02*
X102281500Y-121287500D01*
X81762500Y-127006250D02*
X89962750Y-127006250D01*
X79375000Y-124618750D02*
X81762500Y-127006250D01*
X79375000Y-118119180D02*
X79375000Y-124618750D01*
X77800000Y-116544180D02*
X79375000Y-118119180D01*
X92387500Y-139387500D02*
X92387500Y-134937500D01*
X88490749Y-143284251D02*
X92387500Y-139387500D01*
X73246751Y-143284251D02*
X88490749Y-143284251D01*
X72306250Y-142343750D02*
X73246751Y-143284251D01*
X86518750Y-126206250D02*
X87312500Y-127000000D01*
X103981250Y-134519942D02*
X103981250Y-133587500D01*
X102448182Y-136053010D02*
X103981250Y-134519942D01*
X100178010Y-136053010D02*
X102448182Y-136053010D01*
X99062500Y-134937500D02*
X100178010Y-136053010D01*
X77800000Y-116544180D02*
X77800000Y-113593000D01*
D19*
%TO.N,Net-(C2-Pad2)*%
X95247500Y-114302500D02*
X95250000Y-114300000D01*
X92456000Y-114302500D02*
X95247500Y-114302500D01*
X94296000Y-114300000D02*
X94222999Y-114373001D01*
X95250000Y-114300000D02*
X94296000Y-114300000D01*
X94222999Y-114373001D02*
X94222999Y-117241749D01*
X94862750Y-117881500D02*
X94862750Y-120506250D01*
X94222999Y-117241749D02*
X94862750Y-117881500D01*
%TO.N,Net-(C3-Pad1)*%
X88418750Y-126206250D02*
X89962750Y-126206250D01*
X86518750Y-124306250D02*
X88418750Y-126206250D01*
D20*
%TO.N,+5V*%
X93106250Y-119218750D02*
X93262750Y-119375250D01*
X93262750Y-119375250D02*
X93262750Y-120506250D01*
X87312500Y-119218750D02*
X93106250Y-119218750D01*
X100962500Y-133206000D02*
X99662750Y-131906250D01*
X100962500Y-134937500D02*
X100962500Y-133206000D01*
X76600000Y-129406250D02*
X89962750Y-129406250D01*
X72231250Y-125037500D02*
X76600000Y-129406250D01*
X90487500Y-133081500D02*
X91662750Y-131906250D01*
X90487500Y-134937500D02*
X90487500Y-133081500D01*
X104593750Y-123006250D02*
X101362750Y-123006250D01*
X104775000Y-123187500D02*
X104593750Y-123006250D01*
X86125000Y-118031250D02*
X87312500Y-119218750D01*
X83343750Y-118031250D02*
X86125000Y-118031250D01*
X90487500Y-134937500D02*
X90487500Y-136525000D01*
X87312500Y-119218750D02*
X87312500Y-120650000D01*
X100962500Y-134937500D02*
X102393750Y-134937500D01*
X104775000Y-124618750D02*
X104775000Y-123187500D01*
X89962750Y-125406250D02*
X88350618Y-125406250D01*
X88379692Y-125377176D02*
X88379692Y-125139058D01*
X88350618Y-125406250D02*
X88379692Y-125377176D01*
X88831750Y-129406250D02*
X88063000Y-130175000D01*
X89962750Y-129406250D02*
X88831750Y-129406250D01*
X88063000Y-130175000D02*
X88106250Y-130175000D01*
D19*
%TO.N,Net-(D1-Pad2)*%
X125984000Y-114904250D02*
X125223000Y-114904250D01*
X122341250Y-112022500D02*
X120673500Y-112022500D01*
X125223000Y-114904250D02*
X122341250Y-112022500D01*
%TO.N,ROW0*%
X125984000Y-118204250D02*
X127636000Y-119856250D01*
X127636000Y-119856250D02*
X143382000Y-119856250D01*
X118782000Y-125406250D02*
X101362750Y-125406250D01*
X125984000Y-118204250D02*
X118782000Y-125406250D01*
X143382000Y-119856250D02*
X145034000Y-118204250D01*
%TO.N,Net-(D2-Pad2)*%
X144273000Y-114904250D02*
X141391250Y-112022500D01*
X141391250Y-112022500D02*
X139710500Y-112022500D01*
X145034000Y-114904250D02*
X144273000Y-114904250D01*
%TO.N,Net-(D3-Pad2)*%
X125984000Y-133954250D02*
X125984000Y-133921500D01*
X123135000Y-131072500D02*
X120673500Y-131072500D01*
X125984000Y-133921500D02*
X123135000Y-131072500D01*
%TO.N,ROW1*%
X145034000Y-137254250D02*
X143382000Y-138906250D01*
X127636000Y-138906250D02*
X125984000Y-137254250D01*
X143382000Y-138906250D02*
X127636000Y-138906250D01*
X125984000Y-137254250D02*
X124332000Y-138906250D01*
X114648288Y-138906250D02*
X111473288Y-135731250D01*
X124332000Y-138906250D02*
X114648288Y-138906250D01*
X111473288Y-135731250D02*
X111473288Y-131317038D01*
X107962500Y-127806250D02*
X101362750Y-127806250D01*
X111473288Y-131317038D02*
X107962500Y-127806250D01*
%TO.N,Net-(D4-Pad2)*%
X145034000Y-133954250D02*
X145034000Y-133921500D01*
X145034000Y-133954250D02*
X144273000Y-133954250D01*
X141391250Y-131072500D02*
X139723500Y-131072500D01*
X144273000Y-133954250D02*
X141391250Y-131072500D01*
%TO.N,VCC*%
X72231250Y-118208982D02*
X72231250Y-122237500D01*
X74600000Y-115840232D02*
X72231250Y-118208982D01*
X74600000Y-115840232D02*
X74600000Y-113593000D01*
%TO.N,COL0*%
X108337250Y-127006250D02*
X101362750Y-127006250D01*
X114363500Y-133032500D02*
X108337250Y-127006250D01*
%TO.N,COL1*%
X126587250Y-126206250D02*
X101362750Y-126206250D01*
X133413500Y-133032500D02*
X126587250Y-126206250D01*
%TO.N,Net-(R1-Pad2)*%
X79637500Y-138643750D02*
X80168750Y-138112500D01*
X78506250Y-138643750D02*
X79637500Y-138643750D01*
X83343750Y-121443750D02*
X83343750Y-119856250D01*
X92462750Y-121319852D02*
X92462750Y-120506250D01*
X92178353Y-121604249D02*
X92462750Y-121319852D01*
X85091749Y-121604249D02*
X92178353Y-121604249D01*
X83343750Y-119856250D02*
X85091749Y-121604249D01*
%TO.N,D+*%
X76200000Y-116562500D02*
X76993750Y-117356250D01*
X76200000Y-116562500D02*
X76200000Y-113593000D01*
%TO.N,Net-(R2-Pad1)*%
X89950250Y-127793750D02*
X89962750Y-127806250D01*
X80168750Y-127793750D02*
X89950250Y-127793750D01*
X76200000Y-123825000D02*
X80168750Y-127793750D01*
X76200000Y-120650000D02*
X76200000Y-123825000D01*
X76993750Y-119856250D02*
X76200000Y-120650000D01*
X76993750Y-119181250D02*
X76993750Y-119856250D01*
%TO.N,D-*%
X74606250Y-117350000D02*
X74612500Y-117356250D01*
X75400000Y-116568750D02*
X74612500Y-117356250D01*
X75400000Y-116568750D02*
X75400000Y-113593000D01*
%TO.N,Net-(R3-Pad1)*%
X74612500Y-119181250D02*
X74612500Y-119856250D01*
X74612500Y-119856250D02*
X75406250Y-120650000D01*
X75406250Y-120650000D02*
X75406250Y-123825000D01*
X80187500Y-128606250D02*
X89962750Y-128606250D01*
X75406250Y-123825000D02*
X80187500Y-128606250D01*
%TO.N,Net-(R4-Pad1)*%
X103981250Y-131762500D02*
X103981250Y-130968750D01*
X103218750Y-130206250D02*
X101362750Y-130206250D01*
X103981250Y-130968750D02*
X103218750Y-130206250D01*
%TO.N,Net-(USB1-Pad6)*%
X72550000Y-113243750D02*
X72550000Y-108743750D01*
X72550000Y-108743750D02*
X79850000Y-108743750D01*
X79850000Y-113243750D02*
X79850000Y-108743750D01*
%TD*%
%TO.N,GND*%
X71171401Y-107894966D02*
X71086487Y-108174889D01*
X71065000Y-108393050D01*
X71065000Y-109538949D01*
X71086487Y-109757110D01*
X71171401Y-110037033D01*
X71309294Y-110295013D01*
X71494866Y-110521134D01*
X71720986Y-110706706D01*
X71788001Y-110742526D01*
X71788000Y-111689475D01*
X71720987Y-111725294D01*
X71494867Y-111910866D01*
X71309294Y-112136986D01*
X71171401Y-112394966D01*
X71086487Y-112674889D01*
X71065000Y-112893050D01*
X71065000Y-114038949D01*
X71086487Y-114257110D01*
X71171401Y-114537033D01*
X71309294Y-114795013D01*
X71494866Y-115021134D01*
X71720986Y-115206706D01*
X71978966Y-115344599D01*
X72258889Y-115429513D01*
X72550000Y-115458185D01*
X72841110Y-115429513D01*
X73121033Y-115344599D01*
X73379013Y-115206706D01*
X73605134Y-115021134D01*
X73759754Y-114832729D01*
X73760498Y-114835180D01*
X73819463Y-114945494D01*
X73838000Y-114968082D01*
X73838000Y-115524601D01*
X71718904Y-117643698D01*
X71689828Y-117667560D01*
X71636845Y-117732121D01*
X71594605Y-117783590D01*
X71575812Y-117818750D01*
X71523848Y-117915968D01*
X71480276Y-118059605D01*
X71471543Y-118148278D01*
X71465564Y-118208982D01*
X71469250Y-118246405D01*
X71469251Y-120987921D01*
X71432996Y-120991492D01*
X71266400Y-121042028D01*
X71112864Y-121124095D01*
X70978288Y-121234538D01*
X70867845Y-121369114D01*
X70785778Y-121522650D01*
X70735242Y-121689246D01*
X70718178Y-121862500D01*
X70718178Y-122612500D01*
X70735242Y-122785754D01*
X70785778Y-122952350D01*
X70867845Y-123105886D01*
X70978288Y-123240462D01*
X71112864Y-123350905D01*
X71266400Y-123432972D01*
X71432996Y-123483508D01*
X71606250Y-123500572D01*
X72856250Y-123500572D01*
X73029504Y-123483508D01*
X73196100Y-123432972D01*
X73349636Y-123350905D01*
X73484212Y-123240462D01*
X73594655Y-123105886D01*
X73676722Y-122952350D01*
X73727258Y-122785754D01*
X73744322Y-122612500D01*
X73744322Y-121862500D01*
X73727258Y-121689246D01*
X73676722Y-121522650D01*
X73594655Y-121369114D01*
X73484212Y-121234538D01*
X73349636Y-121124095D01*
X73196100Y-121042028D01*
X73029504Y-120991492D01*
X72993250Y-120987921D01*
X72993250Y-118524612D01*
X73417696Y-118100166D01*
X73424095Y-118112137D01*
X73534538Y-118246712D01*
X73561391Y-118268750D01*
X73534538Y-118290788D01*
X73424095Y-118425363D01*
X73342028Y-118578899D01*
X73291492Y-118745495D01*
X73274428Y-118918749D01*
X73274428Y-119443751D01*
X73291492Y-119617005D01*
X73342028Y-119783601D01*
X73424095Y-119937137D01*
X73534538Y-120071712D01*
X73669113Y-120182155D01*
X73822649Y-120264222D01*
X73989245Y-120314758D01*
X74004245Y-120316235D01*
X74023550Y-120339758D01*
X74071079Y-120397672D01*
X74100149Y-120421529D01*
X74644250Y-120965631D01*
X74644251Y-123787567D01*
X74640564Y-123825000D01*
X74655277Y-123974378D01*
X74698849Y-124118015D01*
X74769605Y-124250392D01*
X74815447Y-124306250D01*
X74864829Y-124366422D01*
X74893899Y-124390279D01*
X79084370Y-128580750D01*
X76941933Y-128580750D01*
X73744322Y-125383140D01*
X73744322Y-124662500D01*
X73727258Y-124489246D01*
X73676722Y-124322650D01*
X73594655Y-124169114D01*
X73484212Y-124034538D01*
X73349636Y-123924095D01*
X73196100Y-123842028D01*
X73029504Y-123791492D01*
X72856250Y-123774428D01*
X71606250Y-123774428D01*
X71432996Y-123791492D01*
X71266400Y-123842028D01*
X71112864Y-123924095D01*
X70978288Y-124034538D01*
X70867845Y-124169114D01*
X70785778Y-124322650D01*
X70735242Y-124489246D01*
X70718178Y-124662500D01*
X70718178Y-125412500D01*
X70735242Y-125585754D01*
X70785778Y-125752350D01*
X70867845Y-125905886D01*
X70978288Y-126040462D01*
X71112864Y-126150905D01*
X71266400Y-126232972D01*
X71432996Y-126283508D01*
X71606250Y-126300572D01*
X72326890Y-126300572D01*
X75987607Y-129961290D01*
X76013459Y-129992791D01*
X76044959Y-130018642D01*
X76139157Y-130095949D01*
X76282566Y-130172603D01*
X76438174Y-130219806D01*
X76559447Y-130231750D01*
X76559450Y-130231750D01*
X76600000Y-130235744D01*
X76640550Y-130231750D01*
X87071250Y-130231750D01*
X87071250Y-130276939D01*
X87111024Y-130476898D01*
X87189045Y-130665256D01*
X87302313Y-130834774D01*
X87446476Y-130978937D01*
X87615994Y-131092205D01*
X87804352Y-131170226D01*
X88004311Y-131210000D01*
X88208189Y-131210000D01*
X88408148Y-131170226D01*
X88596506Y-131092205D01*
X88766024Y-130978937D01*
X88789555Y-130955406D01*
X88858256Y-131011787D01*
X88968570Y-131070752D01*
X89088268Y-131107062D01*
X89212750Y-131119322D01*
X90712750Y-131119322D01*
X90753712Y-131115288D01*
X90749678Y-131156250D01*
X90749678Y-131651889D01*
X89932461Y-132469107D01*
X89900960Y-132494959D01*
X89860333Y-132544463D01*
X89797801Y-132620658D01*
X89721147Y-132764067D01*
X89673945Y-132919674D01*
X89658006Y-133081500D01*
X89662001Y-133122060D01*
X89662001Y-133791483D01*
X89609538Y-133834538D01*
X89499095Y-133969114D01*
X89417028Y-134122650D01*
X89366492Y-134289246D01*
X89349428Y-134462500D01*
X89349428Y-135412500D01*
X89366492Y-135585754D01*
X89417028Y-135752350D01*
X89499095Y-135905886D01*
X89585801Y-136011538D01*
X89570295Y-136034744D01*
X89492274Y-136223102D01*
X89452500Y-136423061D01*
X89452500Y-136626939D01*
X89492274Y-136826898D01*
X89570295Y-137015256D01*
X89683563Y-137184774D01*
X89827726Y-137328937D01*
X89997244Y-137442205D01*
X90185602Y-137520226D01*
X90385561Y-137560000D01*
X90589439Y-137560000D01*
X90789398Y-137520226D01*
X90977756Y-137442205D01*
X91147274Y-137328937D01*
X91291437Y-137184774D01*
X91404705Y-137015256D01*
X91482726Y-136826898D01*
X91522500Y-136626939D01*
X91522500Y-136423061D01*
X91482726Y-136223102D01*
X91437964Y-136115039D01*
X91533006Y-136193037D01*
X91643320Y-136252002D01*
X91763018Y-136288312D01*
X91887500Y-136300572D01*
X92101750Y-136297500D01*
X92260500Y-136138750D01*
X92260500Y-135064500D01*
X92514500Y-135064500D01*
X92514500Y-136138750D01*
X92673250Y-136297500D01*
X92887500Y-136300572D01*
X93011982Y-136288312D01*
X93131680Y-136252002D01*
X93241994Y-136193037D01*
X93338685Y-136113685D01*
X93418037Y-136016994D01*
X93477002Y-135906680D01*
X93513312Y-135786982D01*
X93525572Y-135662500D01*
X97924428Y-135662500D01*
X97936688Y-135786982D01*
X97972998Y-135906680D01*
X98031963Y-136016994D01*
X98111315Y-136113685D01*
X98208006Y-136193037D01*
X98318320Y-136252002D01*
X98438018Y-136288312D01*
X98562500Y-136300572D01*
X98776750Y-136297500D01*
X98935500Y-136138750D01*
X98935500Y-135064500D01*
X98086250Y-135064500D01*
X97927500Y-135223250D01*
X97924428Y-135662500D01*
X93525572Y-135662500D01*
X93522500Y-135223250D01*
X93363750Y-135064500D01*
X92514500Y-135064500D01*
X92260500Y-135064500D01*
X92240500Y-135064500D01*
X92240500Y-134810500D01*
X92260500Y-134810500D01*
X92260500Y-133736250D01*
X92514500Y-133736250D01*
X92514500Y-134810500D01*
X93363750Y-134810500D01*
X93522500Y-134651750D01*
X93525572Y-134212500D01*
X97924428Y-134212500D01*
X97927500Y-134651750D01*
X98086250Y-134810500D01*
X98935500Y-134810500D01*
X98935500Y-133736250D01*
X98776750Y-133577500D01*
X98562500Y-133574428D01*
X98438018Y-133586688D01*
X98318320Y-133622998D01*
X98208006Y-133681963D01*
X98111315Y-133761315D01*
X98031963Y-133858006D01*
X97972998Y-133968320D01*
X97936688Y-134088018D01*
X97924428Y-134212500D01*
X93525572Y-134212500D01*
X93513312Y-134088018D01*
X93477002Y-133968320D01*
X93418037Y-133858006D01*
X93338685Y-133761315D01*
X93241994Y-133681963D01*
X93131680Y-133622998D01*
X93011982Y-133586688D01*
X92887500Y-133574428D01*
X92673250Y-133577500D01*
X92514500Y-133736250D01*
X92260500Y-133736250D01*
X92101750Y-133577500D01*
X91887500Y-133574428D01*
X91763018Y-133586688D01*
X91643320Y-133622998D01*
X91533006Y-133681963D01*
X91436315Y-133761315D01*
X91370842Y-133841094D01*
X91365462Y-133834538D01*
X91313000Y-133791484D01*
X91313000Y-133423432D01*
X91442110Y-133294322D01*
X91937750Y-133294322D01*
X92062232Y-133282062D01*
X92063413Y-133281704D01*
X92177000Y-133291250D01*
X92269083Y-133199167D01*
X92292244Y-133186787D01*
X92388935Y-133107435D01*
X92462750Y-133017491D01*
X92536565Y-133107435D01*
X92633256Y-133186787D01*
X92656417Y-133199167D01*
X92748500Y-133291250D01*
X92862087Y-133281704D01*
X92863268Y-133282062D01*
X92987750Y-133294322D01*
X93537750Y-133294322D01*
X93662232Y-133282062D01*
X93662750Y-133281905D01*
X93663268Y-133282062D01*
X93787750Y-133294322D01*
X94337750Y-133294322D01*
X94462232Y-133282062D01*
X94462750Y-133281905D01*
X94463268Y-133282062D01*
X94587750Y-133294322D01*
X95137750Y-133294322D01*
X95262232Y-133282062D01*
X95262750Y-133281905D01*
X95263268Y-133282062D01*
X95387750Y-133294322D01*
X95937750Y-133294322D01*
X96062232Y-133282062D01*
X96062750Y-133281905D01*
X96063268Y-133282062D01*
X96187750Y-133294322D01*
X96737750Y-133294322D01*
X96862232Y-133282062D01*
X96862750Y-133281905D01*
X96863268Y-133282062D01*
X96987750Y-133294322D01*
X97537750Y-133294322D01*
X97662232Y-133282062D01*
X97662750Y-133281905D01*
X97663268Y-133282062D01*
X97787750Y-133294322D01*
X98337750Y-133294322D01*
X98462232Y-133282062D01*
X98463413Y-133281704D01*
X98577000Y-133291250D01*
X98669083Y-133199167D01*
X98692244Y-133186787D01*
X98788935Y-133107435D01*
X98862750Y-133017491D01*
X98936565Y-133107435D01*
X99033256Y-133186787D01*
X99056417Y-133199167D01*
X99148500Y-133291250D01*
X99262087Y-133281704D01*
X99263268Y-133282062D01*
X99387750Y-133294322D01*
X99883389Y-133294322D01*
X100137001Y-133547934D01*
X100137001Y-133791483D01*
X100084538Y-133834538D01*
X100079158Y-133841094D01*
X100013685Y-133761315D01*
X99916994Y-133681963D01*
X99806680Y-133622998D01*
X99686982Y-133586688D01*
X99562500Y-133574428D01*
X99348250Y-133577500D01*
X99189500Y-133736250D01*
X99189500Y-134810500D01*
X99209500Y-134810500D01*
X99209500Y-135064500D01*
X99189500Y-135064500D01*
X99189500Y-136138750D01*
X99348250Y-136297500D01*
X99562500Y-136300572D01*
X99686982Y-136288312D01*
X99806680Y-136252002D01*
X99916994Y-136193037D01*
X100013685Y-136113685D01*
X100079158Y-136033906D01*
X100084538Y-136040462D01*
X100219114Y-136150905D01*
X100372650Y-136232972D01*
X100539246Y-136283508D01*
X100712500Y-136300572D01*
X101212500Y-136300572D01*
X101385754Y-136283508D01*
X101552350Y-136232972D01*
X101705886Y-136150905D01*
X101840462Y-136040462D01*
X101950905Y-135905886D01*
X101964709Y-135880061D01*
X102091852Y-135932726D01*
X102291811Y-135972500D01*
X102495689Y-135972500D01*
X102695648Y-135932726D01*
X102884006Y-135854705D01*
X103053524Y-135741437D01*
X103197687Y-135597274D01*
X103310955Y-135427756D01*
X103388976Y-135239398D01*
X103428750Y-135039439D01*
X103428750Y-134835561D01*
X103409170Y-134737123D01*
X103695500Y-134735000D01*
X103854250Y-134576250D01*
X103854250Y-133714500D01*
X104108250Y-133714500D01*
X104108250Y-134576250D01*
X104267000Y-134735000D01*
X104681250Y-134738072D01*
X104805732Y-134725812D01*
X104925430Y-134689502D01*
X105035744Y-134630537D01*
X105132435Y-134551185D01*
X105211787Y-134454494D01*
X105270752Y-134344180D01*
X105307062Y-134224482D01*
X105319322Y-134100000D01*
X105316250Y-133873250D01*
X105157500Y-133714500D01*
X104108250Y-133714500D01*
X103854250Y-133714500D01*
X102805000Y-133714500D01*
X102646250Y-133873250D01*
X102645450Y-133932289D01*
X102495689Y-133902500D01*
X102291811Y-133902500D01*
X102091852Y-133942274D01*
X101964709Y-133994939D01*
X101950905Y-133969114D01*
X101840462Y-133834538D01*
X101788000Y-133791484D01*
X101788000Y-133246550D01*
X101791994Y-133205999D01*
X101779732Y-133081500D01*
X101776056Y-133044174D01*
X101728853Y-132888566D01*
X101669529Y-132777579D01*
X101652199Y-132745157D01*
X101579234Y-132656250D01*
X101549041Y-132619459D01*
X101517539Y-132593606D01*
X100575822Y-131651890D01*
X100575822Y-131156250D01*
X100571788Y-131115288D01*
X100612750Y-131119322D01*
X102112750Y-131119322D01*
X102237232Y-131107062D01*
X102356930Y-131070752D01*
X102467244Y-131011787D01*
X102520294Y-130968250D01*
X102824329Y-130968250D01*
X102792845Y-131006613D01*
X102710778Y-131160149D01*
X102660242Y-131326745D01*
X102643178Y-131499999D01*
X102643178Y-132025001D01*
X102660242Y-132198255D01*
X102710778Y-132364851D01*
X102792845Y-132518387D01*
X102859526Y-132599637D01*
X102830065Y-132623815D01*
X102750713Y-132720506D01*
X102691748Y-132830820D01*
X102655438Y-132950518D01*
X102643178Y-133075000D01*
X102646250Y-133301750D01*
X102805000Y-133460500D01*
X103854250Y-133460500D01*
X103854250Y-133440500D01*
X104108250Y-133440500D01*
X104108250Y-133460500D01*
X105157500Y-133460500D01*
X105316250Y-133301750D01*
X105319322Y-133075000D01*
X105307062Y-132950518D01*
X105270752Y-132830820D01*
X105211787Y-132720506D01*
X105132435Y-132623815D01*
X105102974Y-132599637D01*
X105169655Y-132518387D01*
X105251722Y-132364851D01*
X105302258Y-132198255D01*
X105319322Y-132025001D01*
X105319322Y-131499999D01*
X105302258Y-131326745D01*
X105251722Y-131160149D01*
X105169655Y-131006613D01*
X105059212Y-130872038D01*
X104924637Y-130761595D01*
X104771101Y-130679528D01*
X104675116Y-130650412D01*
X104651235Y-130605732D01*
X104617895Y-130543357D01*
X104546529Y-130456398D01*
X104522672Y-130427328D01*
X104493601Y-130403470D01*
X103784034Y-129693903D01*
X103760172Y-129664828D01*
X103644142Y-129569605D01*
X103511765Y-129498848D01*
X103368128Y-129455276D01*
X103256176Y-129444250D01*
X103256173Y-129444250D01*
X103218750Y-129440564D01*
X103181327Y-129444250D01*
X102750822Y-129444250D01*
X102750822Y-129131250D01*
X102738562Y-129006768D01*
X102738405Y-129006250D01*
X102738562Y-129005732D01*
X102750822Y-128881250D01*
X102750822Y-128568250D01*
X107646870Y-128568250D01*
X108616750Y-129538130D01*
X108616750Y-144482797D01*
X71468775Y-144596152D01*
X71103790Y-144560364D01*
X70782788Y-144463448D01*
X70486725Y-144306029D01*
X70226877Y-144094101D01*
X70013144Y-143835742D01*
X69853662Y-143540786D01*
X69754507Y-143220469D01*
X69720168Y-142893750D01*
X70768178Y-142893750D01*
X70780438Y-143018232D01*
X70816748Y-143137930D01*
X70875713Y-143248244D01*
X70955065Y-143344935D01*
X71051756Y-143424287D01*
X71162070Y-143483252D01*
X71281768Y-143519562D01*
X71406250Y-143531822D01*
X72020500Y-143528750D01*
X72179250Y-143370000D01*
X72179250Y-142470750D01*
X72433250Y-142470750D01*
X72433250Y-143370000D01*
X72592000Y-143528750D01*
X73206250Y-143531822D01*
X73330732Y-143519562D01*
X73450430Y-143483252D01*
X73560744Y-143424287D01*
X73657435Y-143344935D01*
X73736787Y-143248244D01*
X73795752Y-143137930D01*
X73832062Y-143018232D01*
X73844322Y-142893750D01*
X73841250Y-142629500D01*
X73682500Y-142470750D01*
X72433250Y-142470750D01*
X72179250Y-142470750D01*
X70930000Y-142470750D01*
X70771250Y-142629500D01*
X70768178Y-142893750D01*
X69720168Y-142893750D01*
X69716250Y-142856479D01*
X69716250Y-141793750D01*
X70768178Y-141793750D01*
X70771250Y-142058000D01*
X70930000Y-142216750D01*
X72179250Y-142216750D01*
X72179250Y-141317500D01*
X72433250Y-141317500D01*
X72433250Y-142216750D01*
X73682500Y-142216750D01*
X73841250Y-142058000D01*
X73844322Y-141793750D01*
X76968178Y-141793750D01*
X76968178Y-142893750D01*
X76980438Y-143018232D01*
X77016748Y-143137930D01*
X77075713Y-143248244D01*
X77155065Y-143344935D01*
X77251756Y-143424287D01*
X77362070Y-143483252D01*
X77481768Y-143519562D01*
X77606250Y-143531822D01*
X79406250Y-143531822D01*
X79530732Y-143519562D01*
X79650430Y-143483252D01*
X79760744Y-143424287D01*
X79857435Y-143344935D01*
X79936787Y-143248244D01*
X79995752Y-143137930D01*
X80032062Y-143018232D01*
X80044322Y-142893750D01*
X80044322Y-141793750D01*
X80032062Y-141669268D01*
X79995752Y-141549570D01*
X79936787Y-141439256D01*
X79857435Y-141342565D01*
X79760744Y-141263213D01*
X79650430Y-141204248D01*
X79530732Y-141167938D01*
X79406250Y-141155678D01*
X77606250Y-141155678D01*
X77481768Y-141167938D01*
X77362070Y-141204248D01*
X77251756Y-141263213D01*
X77155065Y-141342565D01*
X77075713Y-141439256D01*
X77016748Y-141549570D01*
X76980438Y-141669268D01*
X76968178Y-141793750D01*
X73844322Y-141793750D01*
X73832062Y-141669268D01*
X73795752Y-141549570D01*
X73736787Y-141439256D01*
X73657435Y-141342565D01*
X73560744Y-141263213D01*
X73450430Y-141204248D01*
X73330732Y-141167938D01*
X73206250Y-141155678D01*
X72592000Y-141158750D01*
X72433250Y-141317500D01*
X72179250Y-141317500D01*
X72020500Y-141158750D01*
X71406250Y-141155678D01*
X71281768Y-141167938D01*
X71162070Y-141204248D01*
X71051756Y-141263213D01*
X70955065Y-141342565D01*
X70875713Y-141439256D01*
X70816748Y-141549570D01*
X70780438Y-141669268D01*
X70768178Y-141793750D01*
X69716250Y-141793750D01*
X69716250Y-138093750D01*
X70768178Y-138093750D01*
X70768178Y-139193750D01*
X70780438Y-139318232D01*
X70816748Y-139437930D01*
X70875713Y-139548244D01*
X70955065Y-139644935D01*
X71051756Y-139724287D01*
X71162070Y-139783252D01*
X71281768Y-139819562D01*
X71406250Y-139831822D01*
X73206250Y-139831822D01*
X73330732Y-139819562D01*
X73450430Y-139783252D01*
X73560744Y-139724287D01*
X73657435Y-139644935D01*
X73736787Y-139548244D01*
X73795752Y-139437930D01*
X73832062Y-139318232D01*
X73844322Y-139193750D01*
X73844322Y-138093750D01*
X76968178Y-138093750D01*
X76968178Y-139193750D01*
X76980438Y-139318232D01*
X77016748Y-139437930D01*
X77075713Y-139548244D01*
X77155065Y-139644935D01*
X77251756Y-139724287D01*
X77362070Y-139783252D01*
X77481768Y-139819562D01*
X77606250Y-139831822D01*
X79406250Y-139831822D01*
X79530732Y-139819562D01*
X79650430Y-139783252D01*
X79760744Y-139724287D01*
X79857435Y-139644935D01*
X79936787Y-139548244D01*
X79995752Y-139437930D01*
X80032062Y-139318232D01*
X80034282Y-139295687D01*
X80062892Y-139280395D01*
X80178922Y-139185172D01*
X80202783Y-139156097D01*
X80211380Y-139147500D01*
X80270689Y-139147500D01*
X80470648Y-139107726D01*
X80659006Y-139029705D01*
X80828524Y-138916437D01*
X80972687Y-138772274D01*
X81085955Y-138602756D01*
X81163976Y-138414398D01*
X81203750Y-138214439D01*
X81203750Y-138010561D01*
X81163976Y-137810602D01*
X81085955Y-137622244D01*
X80972687Y-137452726D01*
X80828524Y-137308563D01*
X80659006Y-137195295D01*
X80470648Y-137117274D01*
X80270689Y-137077500D01*
X80066811Y-137077500D01*
X79866852Y-137117274D01*
X79678494Y-137195295D01*
X79508976Y-137308563D01*
X79364813Y-137452726D01*
X79362841Y-137455678D01*
X77606250Y-137455678D01*
X77481768Y-137467938D01*
X77362070Y-137504248D01*
X77251756Y-137563213D01*
X77155065Y-137642565D01*
X77075713Y-137739256D01*
X77016748Y-137849570D01*
X76980438Y-137969268D01*
X76968178Y-138093750D01*
X73844322Y-138093750D01*
X73832062Y-137969268D01*
X73795752Y-137849570D01*
X73736787Y-137739256D01*
X73657435Y-137642565D01*
X73560744Y-137563213D01*
X73450430Y-137504248D01*
X73330732Y-137467938D01*
X73206250Y-137455678D01*
X71406250Y-137455678D01*
X71281768Y-137467938D01*
X71162070Y-137504248D01*
X71051756Y-137563213D01*
X70955065Y-137642565D01*
X70875713Y-137739256D01*
X70816748Y-137849570D01*
X70780438Y-137969268D01*
X70768178Y-138093750D01*
X69716250Y-138093750D01*
X69716250Y-109569779D01*
X69752136Y-109203790D01*
X69849051Y-108882790D01*
X70006471Y-108586725D01*
X70218399Y-108326877D01*
X70476760Y-108113142D01*
X70771714Y-107953662D01*
X71092032Y-107854506D01*
X71199039Y-107843259D01*
X71171401Y-107894966D01*
%TA.AperFunction,Conductor*%
D22*
G36*
X71171401Y-107894966D02*
G01*
X71086487Y-108174889D01*
X71065000Y-108393050D01*
X71065000Y-109538949D01*
X71086487Y-109757110D01*
X71171401Y-110037033D01*
X71309294Y-110295013D01*
X71494866Y-110521134D01*
X71720986Y-110706706D01*
X71788001Y-110742526D01*
X71788000Y-111689475D01*
X71720987Y-111725294D01*
X71494867Y-111910866D01*
X71309294Y-112136986D01*
X71171401Y-112394966D01*
X71086487Y-112674889D01*
X71065000Y-112893050D01*
X71065000Y-114038949D01*
X71086487Y-114257110D01*
X71171401Y-114537033D01*
X71309294Y-114795013D01*
X71494866Y-115021134D01*
X71720986Y-115206706D01*
X71978966Y-115344599D01*
X72258889Y-115429513D01*
X72550000Y-115458185D01*
X72841110Y-115429513D01*
X73121033Y-115344599D01*
X73379013Y-115206706D01*
X73605134Y-115021134D01*
X73759754Y-114832729D01*
X73760498Y-114835180D01*
X73819463Y-114945494D01*
X73838000Y-114968082D01*
X73838000Y-115524601D01*
X71718904Y-117643698D01*
X71689828Y-117667560D01*
X71636845Y-117732121D01*
X71594605Y-117783590D01*
X71575812Y-117818750D01*
X71523848Y-117915968D01*
X71480276Y-118059605D01*
X71471543Y-118148278D01*
X71465564Y-118208982D01*
X71469250Y-118246405D01*
X71469251Y-120987921D01*
X71432996Y-120991492D01*
X71266400Y-121042028D01*
X71112864Y-121124095D01*
X70978288Y-121234538D01*
X70867845Y-121369114D01*
X70785778Y-121522650D01*
X70735242Y-121689246D01*
X70718178Y-121862500D01*
X70718178Y-122612500D01*
X70735242Y-122785754D01*
X70785778Y-122952350D01*
X70867845Y-123105886D01*
X70978288Y-123240462D01*
X71112864Y-123350905D01*
X71266400Y-123432972D01*
X71432996Y-123483508D01*
X71606250Y-123500572D01*
X72856250Y-123500572D01*
X73029504Y-123483508D01*
X73196100Y-123432972D01*
X73349636Y-123350905D01*
X73484212Y-123240462D01*
X73594655Y-123105886D01*
X73676722Y-122952350D01*
X73727258Y-122785754D01*
X73744322Y-122612500D01*
X73744322Y-121862500D01*
X73727258Y-121689246D01*
X73676722Y-121522650D01*
X73594655Y-121369114D01*
X73484212Y-121234538D01*
X73349636Y-121124095D01*
X73196100Y-121042028D01*
X73029504Y-120991492D01*
X72993250Y-120987921D01*
X72993250Y-118524612D01*
X73417696Y-118100166D01*
X73424095Y-118112137D01*
X73534538Y-118246712D01*
X73561391Y-118268750D01*
X73534538Y-118290788D01*
X73424095Y-118425363D01*
X73342028Y-118578899D01*
X73291492Y-118745495D01*
X73274428Y-118918749D01*
X73274428Y-119443751D01*
X73291492Y-119617005D01*
X73342028Y-119783601D01*
X73424095Y-119937137D01*
X73534538Y-120071712D01*
X73669113Y-120182155D01*
X73822649Y-120264222D01*
X73989245Y-120314758D01*
X74004245Y-120316235D01*
X74023550Y-120339758D01*
X74071079Y-120397672D01*
X74100149Y-120421529D01*
X74644250Y-120965631D01*
X74644251Y-123787567D01*
X74640564Y-123825000D01*
X74655277Y-123974378D01*
X74698849Y-124118015D01*
X74769605Y-124250392D01*
X74815447Y-124306250D01*
X74864829Y-124366422D01*
X74893899Y-124390279D01*
X79084370Y-128580750D01*
X76941933Y-128580750D01*
X73744322Y-125383140D01*
X73744322Y-124662500D01*
X73727258Y-124489246D01*
X73676722Y-124322650D01*
X73594655Y-124169114D01*
X73484212Y-124034538D01*
X73349636Y-123924095D01*
X73196100Y-123842028D01*
X73029504Y-123791492D01*
X72856250Y-123774428D01*
X71606250Y-123774428D01*
X71432996Y-123791492D01*
X71266400Y-123842028D01*
X71112864Y-123924095D01*
X70978288Y-124034538D01*
X70867845Y-124169114D01*
X70785778Y-124322650D01*
X70735242Y-124489246D01*
X70718178Y-124662500D01*
X70718178Y-125412500D01*
X70735242Y-125585754D01*
X70785778Y-125752350D01*
X70867845Y-125905886D01*
X70978288Y-126040462D01*
X71112864Y-126150905D01*
X71266400Y-126232972D01*
X71432996Y-126283508D01*
X71606250Y-126300572D01*
X72326890Y-126300572D01*
X75987607Y-129961290D01*
X76013459Y-129992791D01*
X76044959Y-130018642D01*
X76139157Y-130095949D01*
X76282566Y-130172603D01*
X76438174Y-130219806D01*
X76559447Y-130231750D01*
X76559450Y-130231750D01*
X76600000Y-130235744D01*
X76640550Y-130231750D01*
X87071250Y-130231750D01*
X87071250Y-130276939D01*
X87111024Y-130476898D01*
X87189045Y-130665256D01*
X87302313Y-130834774D01*
X87446476Y-130978937D01*
X87615994Y-131092205D01*
X87804352Y-131170226D01*
X88004311Y-131210000D01*
X88208189Y-131210000D01*
X88408148Y-131170226D01*
X88596506Y-131092205D01*
X88766024Y-130978937D01*
X88789555Y-130955406D01*
X88858256Y-131011787D01*
X88968570Y-131070752D01*
X89088268Y-131107062D01*
X89212750Y-131119322D01*
X90712750Y-131119322D01*
X90753712Y-131115288D01*
X90749678Y-131156250D01*
X90749678Y-131651889D01*
X89932461Y-132469107D01*
X89900960Y-132494959D01*
X89860333Y-132544463D01*
X89797801Y-132620658D01*
X89721147Y-132764067D01*
X89673945Y-132919674D01*
X89658006Y-133081500D01*
X89662001Y-133122060D01*
X89662001Y-133791483D01*
X89609538Y-133834538D01*
X89499095Y-133969114D01*
X89417028Y-134122650D01*
X89366492Y-134289246D01*
X89349428Y-134462500D01*
X89349428Y-135412500D01*
X89366492Y-135585754D01*
X89417028Y-135752350D01*
X89499095Y-135905886D01*
X89585801Y-136011538D01*
X89570295Y-136034744D01*
X89492274Y-136223102D01*
X89452500Y-136423061D01*
X89452500Y-136626939D01*
X89492274Y-136826898D01*
X89570295Y-137015256D01*
X89683563Y-137184774D01*
X89827726Y-137328937D01*
X89997244Y-137442205D01*
X90185602Y-137520226D01*
X90385561Y-137560000D01*
X90589439Y-137560000D01*
X90789398Y-137520226D01*
X90977756Y-137442205D01*
X91147274Y-137328937D01*
X91291437Y-137184774D01*
X91404705Y-137015256D01*
X91482726Y-136826898D01*
X91522500Y-136626939D01*
X91522500Y-136423061D01*
X91482726Y-136223102D01*
X91437964Y-136115039D01*
X91533006Y-136193037D01*
X91643320Y-136252002D01*
X91763018Y-136288312D01*
X91887500Y-136300572D01*
X92101750Y-136297500D01*
X92260500Y-136138750D01*
X92260500Y-135064500D01*
X92514500Y-135064500D01*
X92514500Y-136138750D01*
X92673250Y-136297500D01*
X92887500Y-136300572D01*
X93011982Y-136288312D01*
X93131680Y-136252002D01*
X93241994Y-136193037D01*
X93338685Y-136113685D01*
X93418037Y-136016994D01*
X93477002Y-135906680D01*
X93513312Y-135786982D01*
X93525572Y-135662500D01*
X97924428Y-135662500D01*
X97936688Y-135786982D01*
X97972998Y-135906680D01*
X98031963Y-136016994D01*
X98111315Y-136113685D01*
X98208006Y-136193037D01*
X98318320Y-136252002D01*
X98438018Y-136288312D01*
X98562500Y-136300572D01*
X98776750Y-136297500D01*
X98935500Y-136138750D01*
X98935500Y-135064500D01*
X98086250Y-135064500D01*
X97927500Y-135223250D01*
X97924428Y-135662500D01*
X93525572Y-135662500D01*
X93522500Y-135223250D01*
X93363750Y-135064500D01*
X92514500Y-135064500D01*
X92260500Y-135064500D01*
X92240500Y-135064500D01*
X92240500Y-134810500D01*
X92260500Y-134810500D01*
X92260500Y-133736250D01*
X92514500Y-133736250D01*
X92514500Y-134810500D01*
X93363750Y-134810500D01*
X93522500Y-134651750D01*
X93525572Y-134212500D01*
X97924428Y-134212500D01*
X97927500Y-134651750D01*
X98086250Y-134810500D01*
X98935500Y-134810500D01*
X98935500Y-133736250D01*
X98776750Y-133577500D01*
X98562500Y-133574428D01*
X98438018Y-133586688D01*
X98318320Y-133622998D01*
X98208006Y-133681963D01*
X98111315Y-133761315D01*
X98031963Y-133858006D01*
X97972998Y-133968320D01*
X97936688Y-134088018D01*
X97924428Y-134212500D01*
X93525572Y-134212500D01*
X93513312Y-134088018D01*
X93477002Y-133968320D01*
X93418037Y-133858006D01*
X93338685Y-133761315D01*
X93241994Y-133681963D01*
X93131680Y-133622998D01*
X93011982Y-133586688D01*
X92887500Y-133574428D01*
X92673250Y-133577500D01*
X92514500Y-133736250D01*
X92260500Y-133736250D01*
X92101750Y-133577500D01*
X91887500Y-133574428D01*
X91763018Y-133586688D01*
X91643320Y-133622998D01*
X91533006Y-133681963D01*
X91436315Y-133761315D01*
X91370842Y-133841094D01*
X91365462Y-133834538D01*
X91313000Y-133791484D01*
X91313000Y-133423432D01*
X91442110Y-133294322D01*
X91937750Y-133294322D01*
X92062232Y-133282062D01*
X92063413Y-133281704D01*
X92177000Y-133291250D01*
X92269083Y-133199167D01*
X92292244Y-133186787D01*
X92388935Y-133107435D01*
X92462750Y-133017491D01*
X92536565Y-133107435D01*
X92633256Y-133186787D01*
X92656417Y-133199167D01*
X92748500Y-133291250D01*
X92862087Y-133281704D01*
X92863268Y-133282062D01*
X92987750Y-133294322D01*
X93537750Y-133294322D01*
X93662232Y-133282062D01*
X93662750Y-133281905D01*
X93663268Y-133282062D01*
X93787750Y-133294322D01*
X94337750Y-133294322D01*
X94462232Y-133282062D01*
X94462750Y-133281905D01*
X94463268Y-133282062D01*
X94587750Y-133294322D01*
X95137750Y-133294322D01*
X95262232Y-133282062D01*
X95262750Y-133281905D01*
X95263268Y-133282062D01*
X95387750Y-133294322D01*
X95937750Y-133294322D01*
X96062232Y-133282062D01*
X96062750Y-133281905D01*
X96063268Y-133282062D01*
X96187750Y-133294322D01*
X96737750Y-133294322D01*
X96862232Y-133282062D01*
X96862750Y-133281905D01*
X96863268Y-133282062D01*
X96987750Y-133294322D01*
X97537750Y-133294322D01*
X97662232Y-133282062D01*
X97662750Y-133281905D01*
X97663268Y-133282062D01*
X97787750Y-133294322D01*
X98337750Y-133294322D01*
X98462232Y-133282062D01*
X98463413Y-133281704D01*
X98577000Y-133291250D01*
X98669083Y-133199167D01*
X98692244Y-133186787D01*
X98788935Y-133107435D01*
X98862750Y-133017491D01*
X98936565Y-133107435D01*
X99033256Y-133186787D01*
X99056417Y-133199167D01*
X99148500Y-133291250D01*
X99262087Y-133281704D01*
X99263268Y-133282062D01*
X99387750Y-133294322D01*
X99883389Y-133294322D01*
X100137001Y-133547934D01*
X100137001Y-133791483D01*
X100084538Y-133834538D01*
X100079158Y-133841094D01*
X100013685Y-133761315D01*
X99916994Y-133681963D01*
X99806680Y-133622998D01*
X99686982Y-133586688D01*
X99562500Y-133574428D01*
X99348250Y-133577500D01*
X99189500Y-133736250D01*
X99189500Y-134810500D01*
X99209500Y-134810500D01*
X99209500Y-135064500D01*
X99189500Y-135064500D01*
X99189500Y-136138750D01*
X99348250Y-136297500D01*
X99562500Y-136300572D01*
X99686982Y-136288312D01*
X99806680Y-136252002D01*
X99916994Y-136193037D01*
X100013685Y-136113685D01*
X100079158Y-136033906D01*
X100084538Y-136040462D01*
X100219114Y-136150905D01*
X100372650Y-136232972D01*
X100539246Y-136283508D01*
X100712500Y-136300572D01*
X101212500Y-136300572D01*
X101385754Y-136283508D01*
X101552350Y-136232972D01*
X101705886Y-136150905D01*
X101840462Y-136040462D01*
X101950905Y-135905886D01*
X101964709Y-135880061D01*
X102091852Y-135932726D01*
X102291811Y-135972500D01*
X102495689Y-135972500D01*
X102695648Y-135932726D01*
X102884006Y-135854705D01*
X103053524Y-135741437D01*
X103197687Y-135597274D01*
X103310955Y-135427756D01*
X103388976Y-135239398D01*
X103428750Y-135039439D01*
X103428750Y-134835561D01*
X103409170Y-134737123D01*
X103695500Y-134735000D01*
X103854250Y-134576250D01*
X103854250Y-133714500D01*
X104108250Y-133714500D01*
X104108250Y-134576250D01*
X104267000Y-134735000D01*
X104681250Y-134738072D01*
X104805732Y-134725812D01*
X104925430Y-134689502D01*
X105035744Y-134630537D01*
X105132435Y-134551185D01*
X105211787Y-134454494D01*
X105270752Y-134344180D01*
X105307062Y-134224482D01*
X105319322Y-134100000D01*
X105316250Y-133873250D01*
X105157500Y-133714500D01*
X104108250Y-133714500D01*
X103854250Y-133714500D01*
X102805000Y-133714500D01*
X102646250Y-133873250D01*
X102645450Y-133932289D01*
X102495689Y-133902500D01*
X102291811Y-133902500D01*
X102091852Y-133942274D01*
X101964709Y-133994939D01*
X101950905Y-133969114D01*
X101840462Y-133834538D01*
X101788000Y-133791484D01*
X101788000Y-133246550D01*
X101791994Y-133205999D01*
X101779732Y-133081500D01*
X101776056Y-133044174D01*
X101728853Y-132888566D01*
X101669529Y-132777579D01*
X101652199Y-132745157D01*
X101579234Y-132656250D01*
X101549041Y-132619459D01*
X101517539Y-132593606D01*
X100575822Y-131651890D01*
X100575822Y-131156250D01*
X100571788Y-131115288D01*
X100612750Y-131119322D01*
X102112750Y-131119322D01*
X102237232Y-131107062D01*
X102356930Y-131070752D01*
X102467244Y-131011787D01*
X102520294Y-130968250D01*
X102824329Y-130968250D01*
X102792845Y-131006613D01*
X102710778Y-131160149D01*
X102660242Y-131326745D01*
X102643178Y-131499999D01*
X102643178Y-132025001D01*
X102660242Y-132198255D01*
X102710778Y-132364851D01*
X102792845Y-132518387D01*
X102859526Y-132599637D01*
X102830065Y-132623815D01*
X102750713Y-132720506D01*
X102691748Y-132830820D01*
X102655438Y-132950518D01*
X102643178Y-133075000D01*
X102646250Y-133301750D01*
X102805000Y-133460500D01*
X103854250Y-133460500D01*
X103854250Y-133440500D01*
X104108250Y-133440500D01*
X104108250Y-133460500D01*
X105157500Y-133460500D01*
X105316250Y-133301750D01*
X105319322Y-133075000D01*
X105307062Y-132950518D01*
X105270752Y-132830820D01*
X105211787Y-132720506D01*
X105132435Y-132623815D01*
X105102974Y-132599637D01*
X105169655Y-132518387D01*
X105251722Y-132364851D01*
X105302258Y-132198255D01*
X105319322Y-132025001D01*
X105319322Y-131499999D01*
X105302258Y-131326745D01*
X105251722Y-131160149D01*
X105169655Y-131006613D01*
X105059212Y-130872038D01*
X104924637Y-130761595D01*
X104771101Y-130679528D01*
X104675116Y-130650412D01*
X104651235Y-130605732D01*
X104617895Y-130543357D01*
X104546529Y-130456398D01*
X104522672Y-130427328D01*
X104493601Y-130403470D01*
X103784034Y-129693903D01*
X103760172Y-129664828D01*
X103644142Y-129569605D01*
X103511765Y-129498848D01*
X103368128Y-129455276D01*
X103256176Y-129444250D01*
X103256173Y-129444250D01*
X103218750Y-129440564D01*
X103181327Y-129444250D01*
X102750822Y-129444250D01*
X102750822Y-129131250D01*
X102738562Y-129006768D01*
X102738405Y-129006250D01*
X102738562Y-129005732D01*
X102750822Y-128881250D01*
X102750822Y-128568250D01*
X107646870Y-128568250D01*
X108616750Y-129538130D01*
X108616750Y-144482797D01*
X71468775Y-144596152D01*
X71103790Y-144560364D01*
X70782788Y-144463448D01*
X70486725Y-144306029D01*
X70226877Y-144094101D01*
X70013144Y-143835742D01*
X69853662Y-143540786D01*
X69754507Y-143220469D01*
X69720168Y-142893750D01*
X70768178Y-142893750D01*
X70780438Y-143018232D01*
X70816748Y-143137930D01*
X70875713Y-143248244D01*
X70955065Y-143344935D01*
X71051756Y-143424287D01*
X71162070Y-143483252D01*
X71281768Y-143519562D01*
X71406250Y-143531822D01*
X72020500Y-143528750D01*
X72179250Y-143370000D01*
X72179250Y-142470750D01*
X72433250Y-142470750D01*
X72433250Y-143370000D01*
X72592000Y-143528750D01*
X73206250Y-143531822D01*
X73330732Y-143519562D01*
X73450430Y-143483252D01*
X73560744Y-143424287D01*
X73657435Y-143344935D01*
X73736787Y-143248244D01*
X73795752Y-143137930D01*
X73832062Y-143018232D01*
X73844322Y-142893750D01*
X73841250Y-142629500D01*
X73682500Y-142470750D01*
X72433250Y-142470750D01*
X72179250Y-142470750D01*
X70930000Y-142470750D01*
X70771250Y-142629500D01*
X70768178Y-142893750D01*
X69720168Y-142893750D01*
X69716250Y-142856479D01*
X69716250Y-141793750D01*
X70768178Y-141793750D01*
X70771250Y-142058000D01*
X70930000Y-142216750D01*
X72179250Y-142216750D01*
X72179250Y-141317500D01*
X72433250Y-141317500D01*
X72433250Y-142216750D01*
X73682500Y-142216750D01*
X73841250Y-142058000D01*
X73844322Y-141793750D01*
X76968178Y-141793750D01*
X76968178Y-142893750D01*
X76980438Y-143018232D01*
X77016748Y-143137930D01*
X77075713Y-143248244D01*
X77155065Y-143344935D01*
X77251756Y-143424287D01*
X77362070Y-143483252D01*
X77481768Y-143519562D01*
X77606250Y-143531822D01*
X79406250Y-143531822D01*
X79530732Y-143519562D01*
X79650430Y-143483252D01*
X79760744Y-143424287D01*
X79857435Y-143344935D01*
X79936787Y-143248244D01*
X79995752Y-143137930D01*
X80032062Y-143018232D01*
X80044322Y-142893750D01*
X80044322Y-141793750D01*
X80032062Y-141669268D01*
X79995752Y-141549570D01*
X79936787Y-141439256D01*
X79857435Y-141342565D01*
X79760744Y-141263213D01*
X79650430Y-141204248D01*
X79530732Y-141167938D01*
X79406250Y-141155678D01*
X77606250Y-141155678D01*
X77481768Y-141167938D01*
X77362070Y-141204248D01*
X77251756Y-141263213D01*
X77155065Y-141342565D01*
X77075713Y-141439256D01*
X77016748Y-141549570D01*
X76980438Y-141669268D01*
X76968178Y-141793750D01*
X73844322Y-141793750D01*
X73832062Y-141669268D01*
X73795752Y-141549570D01*
X73736787Y-141439256D01*
X73657435Y-141342565D01*
X73560744Y-141263213D01*
X73450430Y-141204248D01*
X73330732Y-141167938D01*
X73206250Y-141155678D01*
X72592000Y-141158750D01*
X72433250Y-141317500D01*
X72179250Y-141317500D01*
X72020500Y-141158750D01*
X71406250Y-141155678D01*
X71281768Y-141167938D01*
X71162070Y-141204248D01*
X71051756Y-141263213D01*
X70955065Y-141342565D01*
X70875713Y-141439256D01*
X70816748Y-141549570D01*
X70780438Y-141669268D01*
X70768178Y-141793750D01*
X69716250Y-141793750D01*
X69716250Y-138093750D01*
X70768178Y-138093750D01*
X70768178Y-139193750D01*
X70780438Y-139318232D01*
X70816748Y-139437930D01*
X70875713Y-139548244D01*
X70955065Y-139644935D01*
X71051756Y-139724287D01*
X71162070Y-139783252D01*
X71281768Y-139819562D01*
X71406250Y-139831822D01*
X73206250Y-139831822D01*
X73330732Y-139819562D01*
X73450430Y-139783252D01*
X73560744Y-139724287D01*
X73657435Y-139644935D01*
X73736787Y-139548244D01*
X73795752Y-139437930D01*
X73832062Y-139318232D01*
X73844322Y-139193750D01*
X73844322Y-138093750D01*
X76968178Y-138093750D01*
X76968178Y-139193750D01*
X76980438Y-139318232D01*
X77016748Y-139437930D01*
X77075713Y-139548244D01*
X77155065Y-139644935D01*
X77251756Y-139724287D01*
X77362070Y-139783252D01*
X77481768Y-139819562D01*
X77606250Y-139831822D01*
X79406250Y-139831822D01*
X79530732Y-139819562D01*
X79650430Y-139783252D01*
X79760744Y-139724287D01*
X79857435Y-139644935D01*
X79936787Y-139548244D01*
X79995752Y-139437930D01*
X80032062Y-139318232D01*
X80034282Y-139295687D01*
X80062892Y-139280395D01*
X80178922Y-139185172D01*
X80202783Y-139156097D01*
X80211380Y-139147500D01*
X80270689Y-139147500D01*
X80470648Y-139107726D01*
X80659006Y-139029705D01*
X80828524Y-138916437D01*
X80972687Y-138772274D01*
X81085955Y-138602756D01*
X81163976Y-138414398D01*
X81203750Y-138214439D01*
X81203750Y-138010561D01*
X81163976Y-137810602D01*
X81085955Y-137622244D01*
X80972687Y-137452726D01*
X80828524Y-137308563D01*
X80659006Y-137195295D01*
X80470648Y-137117274D01*
X80270689Y-137077500D01*
X80066811Y-137077500D01*
X79866852Y-137117274D01*
X79678494Y-137195295D01*
X79508976Y-137308563D01*
X79364813Y-137452726D01*
X79362841Y-137455678D01*
X77606250Y-137455678D01*
X77481768Y-137467938D01*
X77362070Y-137504248D01*
X77251756Y-137563213D01*
X77155065Y-137642565D01*
X77075713Y-137739256D01*
X77016748Y-137849570D01*
X76980438Y-137969268D01*
X76968178Y-138093750D01*
X73844322Y-138093750D01*
X73832062Y-137969268D01*
X73795752Y-137849570D01*
X73736787Y-137739256D01*
X73657435Y-137642565D01*
X73560744Y-137563213D01*
X73450430Y-137504248D01*
X73330732Y-137467938D01*
X73206250Y-137455678D01*
X71406250Y-137455678D01*
X71281768Y-137467938D01*
X71162070Y-137504248D01*
X71051756Y-137563213D01*
X70955065Y-137642565D01*
X70875713Y-137739256D01*
X70816748Y-137849570D01*
X70780438Y-137969268D01*
X70768178Y-138093750D01*
X69716250Y-138093750D01*
X69716250Y-109569779D01*
X69752136Y-109203790D01*
X69849051Y-108882790D01*
X70006471Y-108586725D01*
X70218399Y-108326877D01*
X70476760Y-108113142D01*
X70771714Y-107953662D01*
X71092032Y-107854506D01*
X71199039Y-107843259D01*
X71171401Y-107894966D01*
G37*
%TD.AperFunction*%
D19*
X108616750Y-124644250D02*
X105810000Y-124644250D01*
X105810000Y-124516811D01*
X105770226Y-124316852D01*
X105717561Y-124189709D01*
X105743386Y-124175905D01*
X105877962Y-124065462D01*
X105988405Y-123930886D01*
X106070472Y-123777350D01*
X106121008Y-123610754D01*
X106138072Y-123437500D01*
X106138072Y-122937500D01*
X106121008Y-122764246D01*
X106070472Y-122597650D01*
X105988405Y-122444114D01*
X105877962Y-122309538D01*
X105871406Y-122304158D01*
X105951185Y-122238685D01*
X106030537Y-122141994D01*
X106089502Y-122031680D01*
X106125812Y-121911982D01*
X106138072Y-121787500D01*
X106135000Y-121573250D01*
X105976250Y-121414500D01*
X104902000Y-121414500D01*
X104902000Y-121434500D01*
X104648000Y-121434500D01*
X104648000Y-121414500D01*
X103573750Y-121414500D01*
X103415000Y-121573250D01*
X103411928Y-121787500D01*
X103424188Y-121911982D01*
X103460498Y-122031680D01*
X103519463Y-122141994D01*
X103551269Y-122180750D01*
X102747750Y-122180750D01*
X102747750Y-122079248D01*
X102589002Y-122079248D01*
X102747750Y-121920500D01*
X102737927Y-121803619D01*
X102701015Y-121684105D01*
X102641496Y-121574089D01*
X102561658Y-121477799D01*
X102464568Y-121398934D01*
X102353958Y-121340526D01*
X102234079Y-121304820D01*
X102109537Y-121293186D01*
X101648500Y-121296250D01*
X101489750Y-121455000D01*
X101489750Y-122079250D01*
X101509750Y-122079250D01*
X101509750Y-122093178D01*
X100612750Y-122093178D01*
X100488268Y-122105438D01*
X100368570Y-122141748D01*
X100258256Y-122200713D01*
X100161565Y-122280065D01*
X100082213Y-122376756D01*
X100069833Y-122399917D01*
X99977750Y-122492000D01*
X99987296Y-122605587D01*
X99986938Y-122606768D01*
X99974678Y-122731250D01*
X99974678Y-123281250D01*
X99986938Y-123405732D01*
X99987095Y-123406250D01*
X99986938Y-123406768D01*
X99974678Y-123531250D01*
X99974678Y-124081250D01*
X99986938Y-124205732D01*
X99987095Y-124206250D01*
X99986938Y-124206768D01*
X99974678Y-124331250D01*
X99974678Y-124881250D01*
X99986938Y-125005732D01*
X99987095Y-125006250D01*
X99986938Y-125006768D01*
X99974678Y-125131250D01*
X99974678Y-125681250D01*
X99986938Y-125805732D01*
X99987095Y-125806250D01*
X99986938Y-125806768D01*
X99974678Y-125931250D01*
X99974678Y-126481250D01*
X99986938Y-126605732D01*
X99987095Y-126606250D01*
X99986938Y-126606768D01*
X99974678Y-126731250D01*
X99974678Y-127281250D01*
X99986938Y-127405732D01*
X99987095Y-127406250D01*
X99986938Y-127406768D01*
X99974678Y-127531250D01*
X99974678Y-128081250D01*
X99986938Y-128205732D01*
X99987095Y-128206250D01*
X99986938Y-128206768D01*
X99974678Y-128331250D01*
X99974678Y-128881250D01*
X99986938Y-129005732D01*
X99987095Y-129006250D01*
X99986938Y-129006768D01*
X99974678Y-129131250D01*
X99974678Y-129681250D01*
X99986938Y-129805732D01*
X99987095Y-129806250D01*
X99986938Y-129806768D01*
X99974678Y-129931250D01*
X99974678Y-130481250D01*
X99978712Y-130522212D01*
X99937750Y-130518178D01*
X99387750Y-130518178D01*
X99263268Y-130530438D01*
X99262087Y-130530796D01*
X99148500Y-130521250D01*
X99056417Y-130613333D01*
X99033256Y-130625713D01*
X98936565Y-130705065D01*
X98862750Y-130795009D01*
X98788935Y-130705065D01*
X98692244Y-130625713D01*
X98669083Y-130613333D01*
X98577000Y-130521250D01*
X98463413Y-130530796D01*
X98462232Y-130530438D01*
X98337750Y-130518178D01*
X97787750Y-130518178D01*
X97663268Y-130530438D01*
X97662750Y-130530595D01*
X97662232Y-130530438D01*
X97537750Y-130518178D01*
X96987750Y-130518178D01*
X96863268Y-130530438D01*
X96862750Y-130530595D01*
X96862232Y-130530438D01*
X96737750Y-130518178D01*
X96187750Y-130518178D01*
X96063268Y-130530438D01*
X96062750Y-130530595D01*
X96062232Y-130530438D01*
X95937750Y-130518178D01*
X95387750Y-130518178D01*
X95263268Y-130530438D01*
X95262750Y-130530595D01*
X95262232Y-130530438D01*
X95137750Y-130518178D01*
X94587750Y-130518178D01*
X94463268Y-130530438D01*
X94462750Y-130530595D01*
X94462232Y-130530438D01*
X94337750Y-130518178D01*
X93787750Y-130518178D01*
X93663268Y-130530438D01*
X93662750Y-130530595D01*
X93662232Y-130530438D01*
X93537750Y-130518178D01*
X92987750Y-130518178D01*
X92863268Y-130530438D01*
X92862087Y-130530796D01*
X92748500Y-130521250D01*
X92656417Y-130613333D01*
X92633256Y-130625713D01*
X92536565Y-130705065D01*
X92462750Y-130795009D01*
X92388935Y-130705065D01*
X92292244Y-130625713D01*
X92269083Y-130613333D01*
X92177000Y-130521250D01*
X92063413Y-130530796D01*
X92062232Y-130530438D01*
X91937750Y-130518178D01*
X91387750Y-130518178D01*
X91346788Y-130522212D01*
X91350822Y-130481250D01*
X91350822Y-129931250D01*
X91338562Y-129806768D01*
X91338405Y-129806250D01*
X91338562Y-129805732D01*
X91350822Y-129681250D01*
X91350822Y-129131250D01*
X91338562Y-129006768D01*
X91338405Y-129006250D01*
X91338562Y-129005732D01*
X91350822Y-128881250D01*
X91350822Y-128331250D01*
X91338562Y-128206768D01*
X91338405Y-128206250D01*
X91338562Y-128205732D01*
X91350822Y-128081250D01*
X91350822Y-127531250D01*
X91338562Y-127406768D01*
X91338204Y-127405587D01*
X91347750Y-127292000D01*
X91255667Y-127199917D01*
X91243287Y-127176756D01*
X91163935Y-127080065D01*
X91073991Y-127006250D01*
X91163935Y-126932435D01*
X91243287Y-126835744D01*
X91255667Y-126812583D01*
X91347750Y-126720500D01*
X91338204Y-126606913D01*
X91338562Y-126605732D01*
X91350822Y-126481250D01*
X91350822Y-125931250D01*
X91338562Y-125806768D01*
X91338405Y-125806250D01*
X91338562Y-125805732D01*
X91350822Y-125681250D01*
X91350822Y-125131250D01*
X91338562Y-125006768D01*
X91338405Y-125006250D01*
X91338562Y-125005732D01*
X91350822Y-124881250D01*
X91350822Y-124331250D01*
X91338562Y-124206768D01*
X91338405Y-124206250D01*
X91338562Y-124205732D01*
X91350822Y-124081250D01*
X91350822Y-123531250D01*
X91338562Y-123406768D01*
X91338405Y-123406250D01*
X91338562Y-123405732D01*
X91350822Y-123281250D01*
X91350822Y-122731250D01*
X91338562Y-122606768D01*
X91338405Y-122606250D01*
X91338562Y-122605732D01*
X91350822Y-122481250D01*
X91350822Y-122366249D01*
X92140930Y-122366249D01*
X92178353Y-122369935D01*
X92215776Y-122366249D01*
X92215779Y-122366249D01*
X92327731Y-122355223D01*
X92471368Y-122311651D01*
X92603745Y-122240894D01*
X92719775Y-122145671D01*
X92743637Y-122116595D01*
X92967868Y-121892364D01*
X92987750Y-121894322D01*
X93537750Y-121894322D01*
X93662232Y-121882062D01*
X93663413Y-121881704D01*
X93777000Y-121891250D01*
X93869083Y-121799167D01*
X93892244Y-121786787D01*
X93988935Y-121707435D01*
X94062750Y-121617491D01*
X94136565Y-121707435D01*
X94233256Y-121786787D01*
X94256417Y-121799167D01*
X94348500Y-121891250D01*
X94462087Y-121881704D01*
X94463268Y-121882062D01*
X94587750Y-121894322D01*
X95137750Y-121894322D01*
X95262232Y-121882062D01*
X95262750Y-121881905D01*
X95263268Y-121882062D01*
X95387750Y-121894322D01*
X95937750Y-121894322D01*
X96062232Y-121882062D01*
X96062750Y-121881905D01*
X96063268Y-121882062D01*
X96187750Y-121894322D01*
X96737750Y-121894322D01*
X96862232Y-121882062D01*
X96862750Y-121881905D01*
X96863268Y-121882062D01*
X96987750Y-121894322D01*
X97537750Y-121894322D01*
X97662232Y-121882062D01*
X97662750Y-121881905D01*
X97663268Y-121882062D01*
X97787750Y-121894322D01*
X98337750Y-121894322D01*
X98462232Y-121882062D01*
X98462750Y-121881905D01*
X98463268Y-121882062D01*
X98587750Y-121894322D01*
X99137750Y-121894322D01*
X99262232Y-121882062D01*
X99262750Y-121881905D01*
X99263268Y-121882062D01*
X99387750Y-121894322D01*
X99937750Y-121894322D01*
X99980302Y-121890131D01*
X99977750Y-121920500D01*
X100136500Y-122079250D01*
X101235750Y-122079250D01*
X101235750Y-121455000D01*
X101077000Y-121296250D01*
X100615963Y-121293186D01*
X100571778Y-121297314D01*
X100575822Y-121256250D01*
X100575822Y-120787500D01*
X103411928Y-120787500D01*
X103415000Y-121001750D01*
X103573750Y-121160500D01*
X104648000Y-121160500D01*
X104648000Y-120311250D01*
X104902000Y-120311250D01*
X104902000Y-121160500D01*
X105976250Y-121160500D01*
X106135000Y-121001750D01*
X106138072Y-120787500D01*
X106125812Y-120663018D01*
X106089502Y-120543320D01*
X106030537Y-120433006D01*
X105951185Y-120336315D01*
X105854494Y-120256963D01*
X105744180Y-120197998D01*
X105624482Y-120161688D01*
X105500000Y-120149428D01*
X105060750Y-120152500D01*
X104902000Y-120311250D01*
X104648000Y-120311250D01*
X104489250Y-120152500D01*
X104050000Y-120149428D01*
X103925518Y-120161688D01*
X103805820Y-120197998D01*
X103695506Y-120256963D01*
X103598815Y-120336315D01*
X103519463Y-120433006D01*
X103460498Y-120543320D01*
X103424188Y-120663018D01*
X103411928Y-120787500D01*
X100575822Y-120787500D01*
X100575822Y-119756250D01*
X100563562Y-119631768D01*
X100527252Y-119512070D01*
X100468287Y-119401756D01*
X100388935Y-119305065D01*
X100292244Y-119225713D01*
X100181930Y-119166748D01*
X100062232Y-119130438D01*
X99937750Y-119118178D01*
X99387750Y-119118178D01*
X99263268Y-119130438D01*
X99262750Y-119130595D01*
X99262232Y-119130438D01*
X99137750Y-119118178D01*
X98587750Y-119118178D01*
X98463268Y-119130438D01*
X98462750Y-119130595D01*
X98462232Y-119130438D01*
X98337750Y-119118178D01*
X97787750Y-119118178D01*
X97663268Y-119130438D01*
X97662750Y-119130595D01*
X97662232Y-119130438D01*
X97537750Y-119118178D01*
X96987750Y-119118178D01*
X96863268Y-119130438D01*
X96862750Y-119130595D01*
X96862232Y-119130438D01*
X96737750Y-119118178D01*
X96424750Y-119118178D01*
X96424750Y-118102880D01*
X97289559Y-117238072D01*
X98150000Y-117238072D01*
X98274482Y-117225812D01*
X98394180Y-117189502D01*
X98504494Y-117130537D01*
X98601185Y-117051185D01*
X98672325Y-116964500D01*
X99195371Y-116964500D01*
X99290538Y-117080462D01*
X99425114Y-117190905D01*
X99578650Y-117272972D01*
X99745246Y-117323508D01*
X99918500Y-117340572D01*
X100868500Y-117340572D01*
X101041754Y-117323508D01*
X101208350Y-117272972D01*
X101361886Y-117190905D01*
X101496462Y-117080462D01*
X101606905Y-116945886D01*
X101688972Y-116792350D01*
X101739508Y-116625754D01*
X101756572Y-116452500D01*
X101756572Y-115952500D01*
X101739508Y-115779246D01*
X101688972Y-115612650D01*
X101606905Y-115459114D01*
X101496462Y-115324538D01*
X101489906Y-115319158D01*
X101569685Y-115253685D01*
X101649037Y-115156994D01*
X101708002Y-115046680D01*
X101744312Y-114926982D01*
X101756572Y-114802500D01*
X101753500Y-114588250D01*
X101594750Y-114429500D01*
X100520500Y-114429500D01*
X100520500Y-114449500D01*
X100266500Y-114449500D01*
X100266500Y-114429500D01*
X99192250Y-114429500D01*
X99033500Y-114588250D01*
X99030428Y-114802500D01*
X99042688Y-114926982D01*
X99078998Y-115046680D01*
X99137963Y-115156994D01*
X99217315Y-115253685D01*
X99297094Y-115319158D01*
X99290538Y-115324538D01*
X99195371Y-115440500D01*
X98788072Y-115440500D01*
X98788072Y-115400000D01*
X98775812Y-115275518D01*
X98739502Y-115155820D01*
X98736391Y-115150000D01*
X98739502Y-115144180D01*
X98775812Y-115024482D01*
X98788072Y-114900000D01*
X98785000Y-114585750D01*
X98626250Y-114427000D01*
X97577000Y-114427000D01*
X97577000Y-114447000D01*
X97323000Y-114447000D01*
X97323000Y-114427000D01*
X97303000Y-114427000D01*
X97303000Y-114173000D01*
X97323000Y-114173000D01*
X97323000Y-113223750D01*
X97577000Y-113223750D01*
X97577000Y-114173000D01*
X98626250Y-114173000D01*
X98785000Y-114014250D01*
X98787069Y-113802500D01*
X99030428Y-113802500D01*
X99033500Y-114016750D01*
X99192250Y-114175500D01*
X100266500Y-114175500D01*
X100266500Y-113326250D01*
X100520500Y-113326250D01*
X100520500Y-114175500D01*
X101594750Y-114175500D01*
X101753500Y-114016750D01*
X101756572Y-113802500D01*
X101744312Y-113678018D01*
X101708002Y-113558320D01*
X101649037Y-113448006D01*
X101569685Y-113351315D01*
X101472994Y-113271963D01*
X101362680Y-113212998D01*
X101242982Y-113176688D01*
X101118500Y-113164428D01*
X100679250Y-113167500D01*
X100520500Y-113326250D01*
X100266500Y-113326250D01*
X100107750Y-113167500D01*
X99668500Y-113164428D01*
X99544018Y-113176688D01*
X99424320Y-113212998D01*
X99314006Y-113271963D01*
X99217315Y-113351315D01*
X99137963Y-113448006D01*
X99078998Y-113558320D01*
X99042688Y-113678018D01*
X99030428Y-113802500D01*
X98787069Y-113802500D01*
X98788072Y-113700000D01*
X98775812Y-113575518D01*
X98739502Y-113455820D01*
X98680537Y-113345506D01*
X98601185Y-113248815D01*
X98504494Y-113169463D01*
X98394180Y-113110498D01*
X98274482Y-113074188D01*
X98150000Y-113061928D01*
X97735750Y-113065000D01*
X97577000Y-113223750D01*
X97323000Y-113223750D01*
X97164250Y-113065000D01*
X96750000Y-113061928D01*
X96625518Y-113074188D01*
X96505820Y-113110498D01*
X96395506Y-113169463D01*
X96350000Y-113206809D01*
X96304494Y-113169463D01*
X96194180Y-113110498D01*
X96074482Y-113074188D01*
X95950000Y-113061928D01*
X94550000Y-113061928D01*
X94425518Y-113074188D01*
X94305820Y-113110498D01*
X94195506Y-113169463D01*
X94098815Y-113248815D01*
X94019463Y-113345506D01*
X93960498Y-113455820D01*
X93934811Y-113540500D01*
X93654129Y-113540500D01*
X93558962Y-113424538D01*
X93424386Y-113314095D01*
X93270850Y-113232028D01*
X93104254Y-113181492D01*
X92931000Y-113164428D01*
X91981000Y-113164428D01*
X91807746Y-113181492D01*
X91641150Y-113232028D01*
X91487614Y-113314095D01*
X91353038Y-113424538D01*
X91242595Y-113559114D01*
X91160528Y-113712650D01*
X91109992Y-113879246D01*
X91092928Y-114052500D01*
X91092928Y-114552500D01*
X91109992Y-114725754D01*
X91160528Y-114892350D01*
X91242595Y-115045886D01*
X91353038Y-115180462D01*
X91359594Y-115185842D01*
X91279815Y-115251315D01*
X91200463Y-115348006D01*
X91141498Y-115458320D01*
X91105188Y-115578018D01*
X91092928Y-115702500D01*
X91096000Y-115916750D01*
X91254750Y-116075500D01*
X92329000Y-116075500D01*
X92329000Y-116055500D01*
X92583000Y-116055500D01*
X92583000Y-116075500D01*
X92603000Y-116075500D01*
X92603000Y-116329500D01*
X92583000Y-116329500D01*
X92583000Y-117178750D01*
X92741750Y-117337500D01*
X93181000Y-117340572D01*
X93305482Y-117328312D01*
X93425180Y-117292002D01*
X93460408Y-117273172D01*
X93472026Y-117391127D01*
X93515598Y-117534764D01*
X93586354Y-117667141D01*
X93639683Y-117732122D01*
X93681578Y-117783171D01*
X93710648Y-117807028D01*
X94100750Y-118197130D01*
X94100751Y-119348705D01*
X94090820Y-119360805D01*
X94088250Y-119334706D01*
X94088250Y-119334697D01*
X94076306Y-119213424D01*
X94029103Y-119057816D01*
X93952449Y-118914408D01*
X93849291Y-118788709D01*
X93817785Y-118762853D01*
X93718648Y-118663716D01*
X93692791Y-118632209D01*
X93567092Y-118529051D01*
X93423684Y-118452397D01*
X93268076Y-118405194D01*
X93146803Y-118393250D01*
X93146800Y-118393250D01*
X93106250Y-118389256D01*
X93065700Y-118393250D01*
X88458516Y-118393250D01*
X88415462Y-118340788D01*
X88408906Y-118335408D01*
X88488685Y-118269935D01*
X88568037Y-118173244D01*
X88627002Y-118062930D01*
X88663312Y-117943232D01*
X88675572Y-117818750D01*
X88672500Y-117604500D01*
X88513750Y-117445750D01*
X87439500Y-117445750D01*
X87439500Y-117465750D01*
X87185500Y-117465750D01*
X87185500Y-117445750D01*
X87165500Y-117445750D01*
X87165500Y-117191750D01*
X87185500Y-117191750D01*
X87185500Y-116342500D01*
X87439500Y-116342500D01*
X87439500Y-117191750D01*
X88513750Y-117191750D01*
X88672500Y-117033000D01*
X88675572Y-116818750D01*
X88664123Y-116702500D01*
X91092928Y-116702500D01*
X91105188Y-116826982D01*
X91141498Y-116946680D01*
X91200463Y-117056994D01*
X91279815Y-117153685D01*
X91376506Y-117233037D01*
X91486820Y-117292002D01*
X91606518Y-117328312D01*
X91731000Y-117340572D01*
X92170250Y-117337500D01*
X92329000Y-117178750D01*
X92329000Y-116329500D01*
X91254750Y-116329500D01*
X91096000Y-116488250D01*
X91092928Y-116702500D01*
X88664123Y-116702500D01*
X88663312Y-116694268D01*
X88627002Y-116574570D01*
X88568037Y-116464256D01*
X88488685Y-116367565D01*
X88391994Y-116288213D01*
X88281680Y-116229248D01*
X88161982Y-116192938D01*
X88037500Y-116180678D01*
X87598250Y-116183750D01*
X87439500Y-116342500D01*
X87185500Y-116342500D01*
X87026750Y-116183750D01*
X86587500Y-116180678D01*
X86463018Y-116192938D01*
X86343320Y-116229248D01*
X86233006Y-116288213D01*
X86136315Y-116367565D01*
X86056963Y-116464256D01*
X85997998Y-116574570D01*
X85961688Y-116694268D01*
X85949428Y-116818750D01*
X85952500Y-117033000D01*
X86111248Y-117191748D01*
X85952500Y-117191748D01*
X85952500Y-117205750D01*
X84475025Y-117205750D01*
X84421712Y-117140788D01*
X84287137Y-117030345D01*
X84133601Y-116948278D01*
X83967005Y-116897742D01*
X83793751Y-116880678D01*
X82893749Y-116880678D01*
X82720495Y-116897742D01*
X82553899Y-116948278D01*
X82400363Y-117030345D01*
X82265788Y-117140788D01*
X82155345Y-117275363D01*
X82073278Y-117428899D01*
X82022742Y-117595495D01*
X82005678Y-117768749D01*
X82005678Y-118293751D01*
X82022742Y-118467005D01*
X82073278Y-118633601D01*
X82155345Y-118787137D01*
X82265788Y-118921712D01*
X82292641Y-118943750D01*
X82265788Y-118965788D01*
X82155345Y-119100363D01*
X82073278Y-119253899D01*
X82022742Y-119420495D01*
X82005678Y-119593749D01*
X82005678Y-120118751D01*
X82022742Y-120292005D01*
X82073278Y-120458601D01*
X82155345Y-120612137D01*
X82265788Y-120746712D01*
X82400363Y-120857155D01*
X82467086Y-120892819D01*
X82426545Y-120953494D01*
X82348524Y-121141852D01*
X82308750Y-121341811D01*
X82308750Y-121545689D01*
X82348524Y-121745648D01*
X82426545Y-121934006D01*
X82539813Y-122103524D01*
X82683976Y-122247687D01*
X82853494Y-122360955D01*
X83041852Y-122438976D01*
X83241811Y-122478750D01*
X83445689Y-122478750D01*
X83645648Y-122438976D01*
X83834006Y-122360955D01*
X84003524Y-122247687D01*
X84147687Y-122103524D01*
X84260955Y-121934006D01*
X84285242Y-121875373D01*
X84526470Y-122116601D01*
X84550327Y-122145671D01*
X84579397Y-122169528D01*
X84666356Y-122240894D01*
X84730026Y-122274926D01*
X84798734Y-122311651D01*
X84942371Y-122355223D01*
X85054323Y-122366249D01*
X85054326Y-122366249D01*
X85091749Y-122369935D01*
X85129172Y-122366249D01*
X88574678Y-122366249D01*
X88574678Y-122481250D01*
X88586938Y-122605732D01*
X88587095Y-122606250D01*
X88586938Y-122606768D01*
X88574678Y-122731250D01*
X88574678Y-123281250D01*
X88586938Y-123405732D01*
X88587095Y-123406250D01*
X88586938Y-123406768D01*
X88574678Y-123531250D01*
X88574678Y-124081250D01*
X88578828Y-124123392D01*
X88481631Y-124104058D01*
X88277753Y-124104058D01*
X88077794Y-124143832D01*
X87889436Y-124221853D01*
X87881822Y-124226940D01*
X87881822Y-124056250D01*
X87864758Y-123882996D01*
X87814222Y-123716400D01*
X87732155Y-123562864D01*
X87621712Y-123428288D01*
X87487136Y-123317845D01*
X87333600Y-123235778D01*
X87167004Y-123185242D01*
X86993750Y-123168178D01*
X86043750Y-123168178D01*
X85870496Y-123185242D01*
X85703900Y-123235778D01*
X85550364Y-123317845D01*
X85415788Y-123428288D01*
X85305345Y-123562864D01*
X85223278Y-123716400D01*
X85172742Y-123882996D01*
X85155678Y-124056250D01*
X85155678Y-124556250D01*
X85172742Y-124729504D01*
X85223278Y-124896100D01*
X85305345Y-125049636D01*
X85415788Y-125184212D01*
X85422344Y-125189592D01*
X85342565Y-125255065D01*
X85263213Y-125351756D01*
X85204248Y-125462070D01*
X85167938Y-125581768D01*
X85155678Y-125706250D01*
X85158750Y-125920500D01*
X85317500Y-126079250D01*
X86391750Y-126079250D01*
X86391750Y-126059250D01*
X86645750Y-126059250D01*
X86645750Y-126079250D01*
X86665750Y-126079250D01*
X86665750Y-126333250D01*
X86645750Y-126333250D01*
X86645750Y-126353250D01*
X86391750Y-126353250D01*
X86391750Y-126333250D01*
X85317500Y-126333250D01*
X85158750Y-126492000D01*
X85155678Y-126706250D01*
X85167938Y-126830732D01*
X85204248Y-126950430D01*
X85247715Y-127031750D01*
X80484381Y-127031750D01*
X76962000Y-123509370D01*
X76962000Y-120965630D01*
X77506101Y-120421530D01*
X77535172Y-120397672D01*
X77602005Y-120316235D01*
X77617005Y-120314758D01*
X77783601Y-120264222D01*
X77937137Y-120182155D01*
X78071712Y-120071712D01*
X78182155Y-119937137D01*
X78264222Y-119783601D01*
X78314758Y-119617005D01*
X78331822Y-119443751D01*
X78331822Y-118918749D01*
X78314758Y-118745495D01*
X78264222Y-118578899D01*
X78182155Y-118425363D01*
X78071712Y-118290788D01*
X78044859Y-118268750D01*
X78071712Y-118246712D01*
X78182155Y-118112137D01*
X78264222Y-117958601D01*
X78314758Y-117792005D01*
X78331822Y-117618751D01*
X78331822Y-117093749D01*
X78314758Y-116920495D01*
X78264222Y-116753899D01*
X78182155Y-116600363D01*
X78071712Y-116465788D01*
X77937137Y-116355345D01*
X77783601Y-116273278D01*
X77617005Y-116222742D01*
X77443751Y-116205678D01*
X76962000Y-116205678D01*
X76962000Y-115229072D01*
X77250000Y-115229072D01*
X77374482Y-115216812D01*
X77399266Y-115209294D01*
X77418639Y-115215404D01*
X77518250Y-115226000D01*
X77677000Y-115067250D01*
X77677000Y-115062033D01*
X77701185Y-115042185D01*
X77780537Y-114945494D01*
X77839502Y-114835180D01*
X77875812Y-114715482D01*
X77888072Y-114591000D01*
X77888072Y-112341000D01*
X77875812Y-112216518D01*
X77839502Y-112096820D01*
X77780537Y-111986506D01*
X77701185Y-111889815D01*
X77677000Y-111869967D01*
X77677000Y-111864750D01*
X77518250Y-111706000D01*
X77418639Y-111716596D01*
X77399266Y-111722706D01*
X77374482Y-111715188D01*
X77250000Y-111702928D01*
X76750000Y-111702928D01*
X76625518Y-111715188D01*
X76600000Y-111722929D01*
X76574482Y-111715188D01*
X76450000Y-111702928D01*
X75950000Y-111702928D01*
X75825518Y-111715188D01*
X75800000Y-111722929D01*
X75774482Y-111715188D01*
X75650000Y-111702928D01*
X75150000Y-111702928D01*
X75025518Y-111715188D01*
X75000000Y-111722929D01*
X74974482Y-111715188D01*
X74850000Y-111702928D01*
X74350000Y-111702928D01*
X74225518Y-111715188D01*
X74105820Y-111751498D01*
X73995506Y-111810463D01*
X73898815Y-111889815D01*
X73819463Y-111986506D01*
X73760498Y-112096820D01*
X73759754Y-112099271D01*
X73605134Y-111910866D01*
X73379014Y-111725294D01*
X73312000Y-111689474D01*
X73312000Y-110742525D01*
X73379013Y-110706706D01*
X73605134Y-110521134D01*
X73790706Y-110295014D01*
X73928599Y-110037034D01*
X74013513Y-109757111D01*
X74035000Y-109538950D01*
X74035000Y-109505750D01*
X78365000Y-109505750D01*
X78365000Y-109538949D01*
X78386487Y-109757110D01*
X78471401Y-110037033D01*
X78609294Y-110295013D01*
X78794866Y-110521134D01*
X79020986Y-110706706D01*
X79088001Y-110742526D01*
X79088000Y-111689475D01*
X79020987Y-111725294D01*
X78794867Y-111910866D01*
X78640123Y-112099421D01*
X78584406Y-111992366D01*
X78506123Y-111894807D01*
X78410311Y-111814396D01*
X78300652Y-111754221D01*
X78181361Y-111716596D01*
X78081750Y-111706000D01*
X77923000Y-111864750D01*
X77923000Y-113339000D01*
X77947000Y-113339000D01*
X77947000Y-113593000D01*
X77923000Y-113593000D01*
X77923000Y-115067250D01*
X78081750Y-115226000D01*
X78181361Y-115215404D01*
X78300652Y-115177779D01*
X78410311Y-115117604D01*
X78506123Y-115037193D01*
X78584406Y-114939634D01*
X78640123Y-114832578D01*
X78794866Y-115021134D01*
X79020986Y-115206706D01*
X79278966Y-115344599D01*
X79558889Y-115429513D01*
X79850000Y-115458185D01*
X80141110Y-115429513D01*
X80421033Y-115344599D01*
X80679013Y-115206706D01*
X80905134Y-115021134D01*
X81090706Y-114795014D01*
X81228599Y-114537034D01*
X81313513Y-114257111D01*
X81335000Y-114038950D01*
X81335000Y-112893050D01*
X81313513Y-112674889D01*
X81228599Y-112394966D01*
X81090706Y-112136986D01*
X80905134Y-111910866D01*
X80679014Y-111725294D01*
X80612000Y-111689474D01*
X80612000Y-110742525D01*
X80679013Y-110706706D01*
X80905134Y-110521134D01*
X81090706Y-110295014D01*
X81228599Y-110037034D01*
X81313513Y-109757111D01*
X81335000Y-109538950D01*
X81335000Y-108393050D01*
X81313513Y-108174889D01*
X81228599Y-107894966D01*
X81179714Y-107803509D01*
X108616750Y-107767628D01*
X108616750Y-124644250D01*
%TA.AperFunction,Conductor*%
D22*
G36*
X108616750Y-124644250D02*
G01*
X105810000Y-124644250D01*
X105810000Y-124516811D01*
X105770226Y-124316852D01*
X105717561Y-124189709D01*
X105743386Y-124175905D01*
X105877962Y-124065462D01*
X105988405Y-123930886D01*
X106070472Y-123777350D01*
X106121008Y-123610754D01*
X106138072Y-123437500D01*
X106138072Y-122937500D01*
X106121008Y-122764246D01*
X106070472Y-122597650D01*
X105988405Y-122444114D01*
X105877962Y-122309538D01*
X105871406Y-122304158D01*
X105951185Y-122238685D01*
X106030537Y-122141994D01*
X106089502Y-122031680D01*
X106125812Y-121911982D01*
X106138072Y-121787500D01*
X106135000Y-121573250D01*
X105976250Y-121414500D01*
X104902000Y-121414500D01*
X104902000Y-121434500D01*
X104648000Y-121434500D01*
X104648000Y-121414500D01*
X103573750Y-121414500D01*
X103415000Y-121573250D01*
X103411928Y-121787500D01*
X103424188Y-121911982D01*
X103460498Y-122031680D01*
X103519463Y-122141994D01*
X103551269Y-122180750D01*
X102747750Y-122180750D01*
X102747750Y-122079248D01*
X102589002Y-122079248D01*
X102747750Y-121920500D01*
X102737927Y-121803619D01*
X102701015Y-121684105D01*
X102641496Y-121574089D01*
X102561658Y-121477799D01*
X102464568Y-121398934D01*
X102353958Y-121340526D01*
X102234079Y-121304820D01*
X102109537Y-121293186D01*
X101648500Y-121296250D01*
X101489750Y-121455000D01*
X101489750Y-122079250D01*
X101509750Y-122079250D01*
X101509750Y-122093178D01*
X100612750Y-122093178D01*
X100488268Y-122105438D01*
X100368570Y-122141748D01*
X100258256Y-122200713D01*
X100161565Y-122280065D01*
X100082213Y-122376756D01*
X100069833Y-122399917D01*
X99977750Y-122492000D01*
X99987296Y-122605587D01*
X99986938Y-122606768D01*
X99974678Y-122731250D01*
X99974678Y-123281250D01*
X99986938Y-123405732D01*
X99987095Y-123406250D01*
X99986938Y-123406768D01*
X99974678Y-123531250D01*
X99974678Y-124081250D01*
X99986938Y-124205732D01*
X99987095Y-124206250D01*
X99986938Y-124206768D01*
X99974678Y-124331250D01*
X99974678Y-124881250D01*
X99986938Y-125005732D01*
X99987095Y-125006250D01*
X99986938Y-125006768D01*
X99974678Y-125131250D01*
X99974678Y-125681250D01*
X99986938Y-125805732D01*
X99987095Y-125806250D01*
X99986938Y-125806768D01*
X99974678Y-125931250D01*
X99974678Y-126481250D01*
X99986938Y-126605732D01*
X99987095Y-126606250D01*
X99986938Y-126606768D01*
X99974678Y-126731250D01*
X99974678Y-127281250D01*
X99986938Y-127405732D01*
X99987095Y-127406250D01*
X99986938Y-127406768D01*
X99974678Y-127531250D01*
X99974678Y-128081250D01*
X99986938Y-128205732D01*
X99987095Y-128206250D01*
X99986938Y-128206768D01*
X99974678Y-128331250D01*
X99974678Y-128881250D01*
X99986938Y-129005732D01*
X99987095Y-129006250D01*
X99986938Y-129006768D01*
X99974678Y-129131250D01*
X99974678Y-129681250D01*
X99986938Y-129805732D01*
X99987095Y-129806250D01*
X99986938Y-129806768D01*
X99974678Y-129931250D01*
X99974678Y-130481250D01*
X99978712Y-130522212D01*
X99937750Y-130518178D01*
X99387750Y-130518178D01*
X99263268Y-130530438D01*
X99262087Y-130530796D01*
X99148500Y-130521250D01*
X99056417Y-130613333D01*
X99033256Y-130625713D01*
X98936565Y-130705065D01*
X98862750Y-130795009D01*
X98788935Y-130705065D01*
X98692244Y-130625713D01*
X98669083Y-130613333D01*
X98577000Y-130521250D01*
X98463413Y-130530796D01*
X98462232Y-130530438D01*
X98337750Y-130518178D01*
X97787750Y-130518178D01*
X97663268Y-130530438D01*
X97662750Y-130530595D01*
X97662232Y-130530438D01*
X97537750Y-130518178D01*
X96987750Y-130518178D01*
X96863268Y-130530438D01*
X96862750Y-130530595D01*
X96862232Y-130530438D01*
X96737750Y-130518178D01*
X96187750Y-130518178D01*
X96063268Y-130530438D01*
X96062750Y-130530595D01*
X96062232Y-130530438D01*
X95937750Y-130518178D01*
X95387750Y-130518178D01*
X95263268Y-130530438D01*
X95262750Y-130530595D01*
X95262232Y-130530438D01*
X95137750Y-130518178D01*
X94587750Y-130518178D01*
X94463268Y-130530438D01*
X94462750Y-130530595D01*
X94462232Y-130530438D01*
X94337750Y-130518178D01*
X93787750Y-130518178D01*
X93663268Y-130530438D01*
X93662750Y-130530595D01*
X93662232Y-130530438D01*
X93537750Y-130518178D01*
X92987750Y-130518178D01*
X92863268Y-130530438D01*
X92862087Y-130530796D01*
X92748500Y-130521250D01*
X92656417Y-130613333D01*
X92633256Y-130625713D01*
X92536565Y-130705065D01*
X92462750Y-130795009D01*
X92388935Y-130705065D01*
X92292244Y-130625713D01*
X92269083Y-130613333D01*
X92177000Y-130521250D01*
X92063413Y-130530796D01*
X92062232Y-130530438D01*
X91937750Y-130518178D01*
X91387750Y-130518178D01*
X91346788Y-130522212D01*
X91350822Y-130481250D01*
X91350822Y-129931250D01*
X91338562Y-129806768D01*
X91338405Y-129806250D01*
X91338562Y-129805732D01*
X91350822Y-129681250D01*
X91350822Y-129131250D01*
X91338562Y-129006768D01*
X91338405Y-129006250D01*
X91338562Y-129005732D01*
X91350822Y-128881250D01*
X91350822Y-128331250D01*
X91338562Y-128206768D01*
X91338405Y-128206250D01*
X91338562Y-128205732D01*
X91350822Y-128081250D01*
X91350822Y-127531250D01*
X91338562Y-127406768D01*
X91338204Y-127405587D01*
X91347750Y-127292000D01*
X91255667Y-127199917D01*
X91243287Y-127176756D01*
X91163935Y-127080065D01*
X91073991Y-127006250D01*
X91163935Y-126932435D01*
X91243287Y-126835744D01*
X91255667Y-126812583D01*
X91347750Y-126720500D01*
X91338204Y-126606913D01*
X91338562Y-126605732D01*
X91350822Y-126481250D01*
X91350822Y-125931250D01*
X91338562Y-125806768D01*
X91338405Y-125806250D01*
X91338562Y-125805732D01*
X91350822Y-125681250D01*
X91350822Y-125131250D01*
X91338562Y-125006768D01*
X91338405Y-125006250D01*
X91338562Y-125005732D01*
X91350822Y-124881250D01*
X91350822Y-124331250D01*
X91338562Y-124206768D01*
X91338405Y-124206250D01*
X91338562Y-124205732D01*
X91350822Y-124081250D01*
X91350822Y-123531250D01*
X91338562Y-123406768D01*
X91338405Y-123406250D01*
X91338562Y-123405732D01*
X91350822Y-123281250D01*
X91350822Y-122731250D01*
X91338562Y-122606768D01*
X91338405Y-122606250D01*
X91338562Y-122605732D01*
X91350822Y-122481250D01*
X91350822Y-122366249D01*
X92140930Y-122366249D01*
X92178353Y-122369935D01*
X92215776Y-122366249D01*
X92215779Y-122366249D01*
X92327731Y-122355223D01*
X92471368Y-122311651D01*
X92603745Y-122240894D01*
X92719775Y-122145671D01*
X92743637Y-122116595D01*
X92967868Y-121892364D01*
X92987750Y-121894322D01*
X93537750Y-121894322D01*
X93662232Y-121882062D01*
X93663413Y-121881704D01*
X93777000Y-121891250D01*
X93869083Y-121799167D01*
X93892244Y-121786787D01*
X93988935Y-121707435D01*
X94062750Y-121617491D01*
X94136565Y-121707435D01*
X94233256Y-121786787D01*
X94256417Y-121799167D01*
X94348500Y-121891250D01*
X94462087Y-121881704D01*
X94463268Y-121882062D01*
X94587750Y-121894322D01*
X95137750Y-121894322D01*
X95262232Y-121882062D01*
X95262750Y-121881905D01*
X95263268Y-121882062D01*
X95387750Y-121894322D01*
X95937750Y-121894322D01*
X96062232Y-121882062D01*
X96062750Y-121881905D01*
X96063268Y-121882062D01*
X96187750Y-121894322D01*
X96737750Y-121894322D01*
X96862232Y-121882062D01*
X96862750Y-121881905D01*
X96863268Y-121882062D01*
X96987750Y-121894322D01*
X97537750Y-121894322D01*
X97662232Y-121882062D01*
X97662750Y-121881905D01*
X97663268Y-121882062D01*
X97787750Y-121894322D01*
X98337750Y-121894322D01*
X98462232Y-121882062D01*
X98462750Y-121881905D01*
X98463268Y-121882062D01*
X98587750Y-121894322D01*
X99137750Y-121894322D01*
X99262232Y-121882062D01*
X99262750Y-121881905D01*
X99263268Y-121882062D01*
X99387750Y-121894322D01*
X99937750Y-121894322D01*
X99980302Y-121890131D01*
X99977750Y-121920500D01*
X100136500Y-122079250D01*
X101235750Y-122079250D01*
X101235750Y-121455000D01*
X101077000Y-121296250D01*
X100615963Y-121293186D01*
X100571778Y-121297314D01*
X100575822Y-121256250D01*
X100575822Y-120787500D01*
X103411928Y-120787500D01*
X103415000Y-121001750D01*
X103573750Y-121160500D01*
X104648000Y-121160500D01*
X104648000Y-120311250D01*
X104902000Y-120311250D01*
X104902000Y-121160500D01*
X105976250Y-121160500D01*
X106135000Y-121001750D01*
X106138072Y-120787500D01*
X106125812Y-120663018D01*
X106089502Y-120543320D01*
X106030537Y-120433006D01*
X105951185Y-120336315D01*
X105854494Y-120256963D01*
X105744180Y-120197998D01*
X105624482Y-120161688D01*
X105500000Y-120149428D01*
X105060750Y-120152500D01*
X104902000Y-120311250D01*
X104648000Y-120311250D01*
X104489250Y-120152500D01*
X104050000Y-120149428D01*
X103925518Y-120161688D01*
X103805820Y-120197998D01*
X103695506Y-120256963D01*
X103598815Y-120336315D01*
X103519463Y-120433006D01*
X103460498Y-120543320D01*
X103424188Y-120663018D01*
X103411928Y-120787500D01*
X100575822Y-120787500D01*
X100575822Y-119756250D01*
X100563562Y-119631768D01*
X100527252Y-119512070D01*
X100468287Y-119401756D01*
X100388935Y-119305065D01*
X100292244Y-119225713D01*
X100181930Y-119166748D01*
X100062232Y-119130438D01*
X99937750Y-119118178D01*
X99387750Y-119118178D01*
X99263268Y-119130438D01*
X99262750Y-119130595D01*
X99262232Y-119130438D01*
X99137750Y-119118178D01*
X98587750Y-119118178D01*
X98463268Y-119130438D01*
X98462750Y-119130595D01*
X98462232Y-119130438D01*
X98337750Y-119118178D01*
X97787750Y-119118178D01*
X97663268Y-119130438D01*
X97662750Y-119130595D01*
X97662232Y-119130438D01*
X97537750Y-119118178D01*
X96987750Y-119118178D01*
X96863268Y-119130438D01*
X96862750Y-119130595D01*
X96862232Y-119130438D01*
X96737750Y-119118178D01*
X96424750Y-119118178D01*
X96424750Y-118102880D01*
X97289559Y-117238072D01*
X98150000Y-117238072D01*
X98274482Y-117225812D01*
X98394180Y-117189502D01*
X98504494Y-117130537D01*
X98601185Y-117051185D01*
X98672325Y-116964500D01*
X99195371Y-116964500D01*
X99290538Y-117080462D01*
X99425114Y-117190905D01*
X99578650Y-117272972D01*
X99745246Y-117323508D01*
X99918500Y-117340572D01*
X100868500Y-117340572D01*
X101041754Y-117323508D01*
X101208350Y-117272972D01*
X101361886Y-117190905D01*
X101496462Y-117080462D01*
X101606905Y-116945886D01*
X101688972Y-116792350D01*
X101739508Y-116625754D01*
X101756572Y-116452500D01*
X101756572Y-115952500D01*
X101739508Y-115779246D01*
X101688972Y-115612650D01*
X101606905Y-115459114D01*
X101496462Y-115324538D01*
X101489906Y-115319158D01*
X101569685Y-115253685D01*
X101649037Y-115156994D01*
X101708002Y-115046680D01*
X101744312Y-114926982D01*
X101756572Y-114802500D01*
X101753500Y-114588250D01*
X101594750Y-114429500D01*
X100520500Y-114429500D01*
X100520500Y-114449500D01*
X100266500Y-114449500D01*
X100266500Y-114429500D01*
X99192250Y-114429500D01*
X99033500Y-114588250D01*
X99030428Y-114802500D01*
X99042688Y-114926982D01*
X99078998Y-115046680D01*
X99137963Y-115156994D01*
X99217315Y-115253685D01*
X99297094Y-115319158D01*
X99290538Y-115324538D01*
X99195371Y-115440500D01*
X98788072Y-115440500D01*
X98788072Y-115400000D01*
X98775812Y-115275518D01*
X98739502Y-115155820D01*
X98736391Y-115150000D01*
X98739502Y-115144180D01*
X98775812Y-115024482D01*
X98788072Y-114900000D01*
X98785000Y-114585750D01*
X98626250Y-114427000D01*
X97577000Y-114427000D01*
X97577000Y-114447000D01*
X97323000Y-114447000D01*
X97323000Y-114427000D01*
X97303000Y-114427000D01*
X97303000Y-114173000D01*
X97323000Y-114173000D01*
X97323000Y-113223750D01*
X97577000Y-113223750D01*
X97577000Y-114173000D01*
X98626250Y-114173000D01*
X98785000Y-114014250D01*
X98787069Y-113802500D01*
X99030428Y-113802500D01*
X99033500Y-114016750D01*
X99192250Y-114175500D01*
X100266500Y-114175500D01*
X100266500Y-113326250D01*
X100520500Y-113326250D01*
X100520500Y-114175500D01*
X101594750Y-114175500D01*
X101753500Y-114016750D01*
X101756572Y-113802500D01*
X101744312Y-113678018D01*
X101708002Y-113558320D01*
X101649037Y-113448006D01*
X101569685Y-113351315D01*
X101472994Y-113271963D01*
X101362680Y-113212998D01*
X101242982Y-113176688D01*
X101118500Y-113164428D01*
X100679250Y-113167500D01*
X100520500Y-113326250D01*
X100266500Y-113326250D01*
X100107750Y-113167500D01*
X99668500Y-113164428D01*
X99544018Y-113176688D01*
X99424320Y-113212998D01*
X99314006Y-113271963D01*
X99217315Y-113351315D01*
X99137963Y-113448006D01*
X99078998Y-113558320D01*
X99042688Y-113678018D01*
X99030428Y-113802500D01*
X98787069Y-113802500D01*
X98788072Y-113700000D01*
X98775812Y-113575518D01*
X98739502Y-113455820D01*
X98680537Y-113345506D01*
X98601185Y-113248815D01*
X98504494Y-113169463D01*
X98394180Y-113110498D01*
X98274482Y-113074188D01*
X98150000Y-113061928D01*
X97735750Y-113065000D01*
X97577000Y-113223750D01*
X97323000Y-113223750D01*
X97164250Y-113065000D01*
X96750000Y-113061928D01*
X96625518Y-113074188D01*
X96505820Y-113110498D01*
X96395506Y-113169463D01*
X96350000Y-113206809D01*
X96304494Y-113169463D01*
X96194180Y-113110498D01*
X96074482Y-113074188D01*
X95950000Y-113061928D01*
X94550000Y-113061928D01*
X94425518Y-113074188D01*
X94305820Y-113110498D01*
X94195506Y-113169463D01*
X94098815Y-113248815D01*
X94019463Y-113345506D01*
X93960498Y-113455820D01*
X93934811Y-113540500D01*
X93654129Y-113540500D01*
X93558962Y-113424538D01*
X93424386Y-113314095D01*
X93270850Y-113232028D01*
X93104254Y-113181492D01*
X92931000Y-113164428D01*
X91981000Y-113164428D01*
X91807746Y-113181492D01*
X91641150Y-113232028D01*
X91487614Y-113314095D01*
X91353038Y-113424538D01*
X91242595Y-113559114D01*
X91160528Y-113712650D01*
X91109992Y-113879246D01*
X91092928Y-114052500D01*
X91092928Y-114552500D01*
X91109992Y-114725754D01*
X91160528Y-114892350D01*
X91242595Y-115045886D01*
X91353038Y-115180462D01*
X91359594Y-115185842D01*
X91279815Y-115251315D01*
X91200463Y-115348006D01*
X91141498Y-115458320D01*
X91105188Y-115578018D01*
X91092928Y-115702500D01*
X91096000Y-115916750D01*
X91254750Y-116075500D01*
X92329000Y-116075500D01*
X92329000Y-116055500D01*
X92583000Y-116055500D01*
X92583000Y-116075500D01*
X92603000Y-116075500D01*
X92603000Y-116329500D01*
X92583000Y-116329500D01*
X92583000Y-117178750D01*
X92741750Y-117337500D01*
X93181000Y-117340572D01*
X93305482Y-117328312D01*
X93425180Y-117292002D01*
X93460408Y-117273172D01*
X93472026Y-117391127D01*
X93515598Y-117534764D01*
X93586354Y-117667141D01*
X93639683Y-117732122D01*
X93681578Y-117783171D01*
X93710648Y-117807028D01*
X94100750Y-118197130D01*
X94100751Y-119348705D01*
X94090820Y-119360805D01*
X94088250Y-119334706D01*
X94088250Y-119334697D01*
X94076306Y-119213424D01*
X94029103Y-119057816D01*
X93952449Y-118914408D01*
X93849291Y-118788709D01*
X93817785Y-118762853D01*
X93718648Y-118663716D01*
X93692791Y-118632209D01*
X93567092Y-118529051D01*
X93423684Y-118452397D01*
X93268076Y-118405194D01*
X93146803Y-118393250D01*
X93146800Y-118393250D01*
X93106250Y-118389256D01*
X93065700Y-118393250D01*
X88458516Y-118393250D01*
X88415462Y-118340788D01*
X88408906Y-118335408D01*
X88488685Y-118269935D01*
X88568037Y-118173244D01*
X88627002Y-118062930D01*
X88663312Y-117943232D01*
X88675572Y-117818750D01*
X88672500Y-117604500D01*
X88513750Y-117445750D01*
X87439500Y-117445750D01*
X87439500Y-117465750D01*
X87185500Y-117465750D01*
X87185500Y-117445750D01*
X87165500Y-117445750D01*
X87165500Y-117191750D01*
X87185500Y-117191750D01*
X87185500Y-116342500D01*
X87439500Y-116342500D01*
X87439500Y-117191750D01*
X88513750Y-117191750D01*
X88672500Y-117033000D01*
X88675572Y-116818750D01*
X88664123Y-116702500D01*
X91092928Y-116702500D01*
X91105188Y-116826982D01*
X91141498Y-116946680D01*
X91200463Y-117056994D01*
X91279815Y-117153685D01*
X91376506Y-117233037D01*
X91486820Y-117292002D01*
X91606518Y-117328312D01*
X91731000Y-117340572D01*
X92170250Y-117337500D01*
X92329000Y-117178750D01*
X92329000Y-116329500D01*
X91254750Y-116329500D01*
X91096000Y-116488250D01*
X91092928Y-116702500D01*
X88664123Y-116702500D01*
X88663312Y-116694268D01*
X88627002Y-116574570D01*
X88568037Y-116464256D01*
X88488685Y-116367565D01*
X88391994Y-116288213D01*
X88281680Y-116229248D01*
X88161982Y-116192938D01*
X88037500Y-116180678D01*
X87598250Y-116183750D01*
X87439500Y-116342500D01*
X87185500Y-116342500D01*
X87026750Y-116183750D01*
X86587500Y-116180678D01*
X86463018Y-116192938D01*
X86343320Y-116229248D01*
X86233006Y-116288213D01*
X86136315Y-116367565D01*
X86056963Y-116464256D01*
X85997998Y-116574570D01*
X85961688Y-116694268D01*
X85949428Y-116818750D01*
X85952500Y-117033000D01*
X86111248Y-117191748D01*
X85952500Y-117191748D01*
X85952500Y-117205750D01*
X84475025Y-117205750D01*
X84421712Y-117140788D01*
X84287137Y-117030345D01*
X84133601Y-116948278D01*
X83967005Y-116897742D01*
X83793751Y-116880678D01*
X82893749Y-116880678D01*
X82720495Y-116897742D01*
X82553899Y-116948278D01*
X82400363Y-117030345D01*
X82265788Y-117140788D01*
X82155345Y-117275363D01*
X82073278Y-117428899D01*
X82022742Y-117595495D01*
X82005678Y-117768749D01*
X82005678Y-118293751D01*
X82022742Y-118467005D01*
X82073278Y-118633601D01*
X82155345Y-118787137D01*
X82265788Y-118921712D01*
X82292641Y-118943750D01*
X82265788Y-118965788D01*
X82155345Y-119100363D01*
X82073278Y-119253899D01*
X82022742Y-119420495D01*
X82005678Y-119593749D01*
X82005678Y-120118751D01*
X82022742Y-120292005D01*
X82073278Y-120458601D01*
X82155345Y-120612137D01*
X82265788Y-120746712D01*
X82400363Y-120857155D01*
X82467086Y-120892819D01*
X82426545Y-120953494D01*
X82348524Y-121141852D01*
X82308750Y-121341811D01*
X82308750Y-121545689D01*
X82348524Y-121745648D01*
X82426545Y-121934006D01*
X82539813Y-122103524D01*
X82683976Y-122247687D01*
X82853494Y-122360955D01*
X83041852Y-122438976D01*
X83241811Y-122478750D01*
X83445689Y-122478750D01*
X83645648Y-122438976D01*
X83834006Y-122360955D01*
X84003524Y-122247687D01*
X84147687Y-122103524D01*
X84260955Y-121934006D01*
X84285242Y-121875373D01*
X84526470Y-122116601D01*
X84550327Y-122145671D01*
X84579397Y-122169528D01*
X84666356Y-122240894D01*
X84730026Y-122274926D01*
X84798734Y-122311651D01*
X84942371Y-122355223D01*
X85054323Y-122366249D01*
X85054326Y-122366249D01*
X85091749Y-122369935D01*
X85129172Y-122366249D01*
X88574678Y-122366249D01*
X88574678Y-122481250D01*
X88586938Y-122605732D01*
X88587095Y-122606250D01*
X88586938Y-122606768D01*
X88574678Y-122731250D01*
X88574678Y-123281250D01*
X88586938Y-123405732D01*
X88587095Y-123406250D01*
X88586938Y-123406768D01*
X88574678Y-123531250D01*
X88574678Y-124081250D01*
X88578828Y-124123392D01*
X88481631Y-124104058D01*
X88277753Y-124104058D01*
X88077794Y-124143832D01*
X87889436Y-124221853D01*
X87881822Y-124226940D01*
X87881822Y-124056250D01*
X87864758Y-123882996D01*
X87814222Y-123716400D01*
X87732155Y-123562864D01*
X87621712Y-123428288D01*
X87487136Y-123317845D01*
X87333600Y-123235778D01*
X87167004Y-123185242D01*
X86993750Y-123168178D01*
X86043750Y-123168178D01*
X85870496Y-123185242D01*
X85703900Y-123235778D01*
X85550364Y-123317845D01*
X85415788Y-123428288D01*
X85305345Y-123562864D01*
X85223278Y-123716400D01*
X85172742Y-123882996D01*
X85155678Y-124056250D01*
X85155678Y-124556250D01*
X85172742Y-124729504D01*
X85223278Y-124896100D01*
X85305345Y-125049636D01*
X85415788Y-125184212D01*
X85422344Y-125189592D01*
X85342565Y-125255065D01*
X85263213Y-125351756D01*
X85204248Y-125462070D01*
X85167938Y-125581768D01*
X85155678Y-125706250D01*
X85158750Y-125920500D01*
X85317500Y-126079250D01*
X86391750Y-126079250D01*
X86391750Y-126059250D01*
X86645750Y-126059250D01*
X86645750Y-126079250D01*
X86665750Y-126079250D01*
X86665750Y-126333250D01*
X86645750Y-126333250D01*
X86645750Y-126353250D01*
X86391750Y-126353250D01*
X86391750Y-126333250D01*
X85317500Y-126333250D01*
X85158750Y-126492000D01*
X85155678Y-126706250D01*
X85167938Y-126830732D01*
X85204248Y-126950430D01*
X85247715Y-127031750D01*
X80484381Y-127031750D01*
X76962000Y-123509370D01*
X76962000Y-120965630D01*
X77506101Y-120421530D01*
X77535172Y-120397672D01*
X77602005Y-120316235D01*
X77617005Y-120314758D01*
X77783601Y-120264222D01*
X77937137Y-120182155D01*
X78071712Y-120071712D01*
X78182155Y-119937137D01*
X78264222Y-119783601D01*
X78314758Y-119617005D01*
X78331822Y-119443751D01*
X78331822Y-118918749D01*
X78314758Y-118745495D01*
X78264222Y-118578899D01*
X78182155Y-118425363D01*
X78071712Y-118290788D01*
X78044859Y-118268750D01*
X78071712Y-118246712D01*
X78182155Y-118112137D01*
X78264222Y-117958601D01*
X78314758Y-117792005D01*
X78331822Y-117618751D01*
X78331822Y-117093749D01*
X78314758Y-116920495D01*
X78264222Y-116753899D01*
X78182155Y-116600363D01*
X78071712Y-116465788D01*
X77937137Y-116355345D01*
X77783601Y-116273278D01*
X77617005Y-116222742D01*
X77443751Y-116205678D01*
X76962000Y-116205678D01*
X76962000Y-115229072D01*
X77250000Y-115229072D01*
X77374482Y-115216812D01*
X77399266Y-115209294D01*
X77418639Y-115215404D01*
X77518250Y-115226000D01*
X77677000Y-115067250D01*
X77677000Y-115062033D01*
X77701185Y-115042185D01*
X77780537Y-114945494D01*
X77839502Y-114835180D01*
X77875812Y-114715482D01*
X77888072Y-114591000D01*
X77888072Y-112341000D01*
X77875812Y-112216518D01*
X77839502Y-112096820D01*
X77780537Y-111986506D01*
X77701185Y-111889815D01*
X77677000Y-111869967D01*
X77677000Y-111864750D01*
X77518250Y-111706000D01*
X77418639Y-111716596D01*
X77399266Y-111722706D01*
X77374482Y-111715188D01*
X77250000Y-111702928D01*
X76750000Y-111702928D01*
X76625518Y-111715188D01*
X76600000Y-111722929D01*
X76574482Y-111715188D01*
X76450000Y-111702928D01*
X75950000Y-111702928D01*
X75825518Y-111715188D01*
X75800000Y-111722929D01*
X75774482Y-111715188D01*
X75650000Y-111702928D01*
X75150000Y-111702928D01*
X75025518Y-111715188D01*
X75000000Y-111722929D01*
X74974482Y-111715188D01*
X74850000Y-111702928D01*
X74350000Y-111702928D01*
X74225518Y-111715188D01*
X74105820Y-111751498D01*
X73995506Y-111810463D01*
X73898815Y-111889815D01*
X73819463Y-111986506D01*
X73760498Y-112096820D01*
X73759754Y-112099271D01*
X73605134Y-111910866D01*
X73379014Y-111725294D01*
X73312000Y-111689474D01*
X73312000Y-110742525D01*
X73379013Y-110706706D01*
X73605134Y-110521134D01*
X73790706Y-110295014D01*
X73928599Y-110037034D01*
X74013513Y-109757111D01*
X74035000Y-109538950D01*
X74035000Y-109505750D01*
X78365000Y-109505750D01*
X78365000Y-109538949D01*
X78386487Y-109757110D01*
X78471401Y-110037033D01*
X78609294Y-110295013D01*
X78794866Y-110521134D01*
X79020986Y-110706706D01*
X79088001Y-110742526D01*
X79088000Y-111689475D01*
X79020987Y-111725294D01*
X78794867Y-111910866D01*
X78640123Y-112099421D01*
X78584406Y-111992366D01*
X78506123Y-111894807D01*
X78410311Y-111814396D01*
X78300652Y-111754221D01*
X78181361Y-111716596D01*
X78081750Y-111706000D01*
X77923000Y-111864750D01*
X77923000Y-113339000D01*
X77947000Y-113339000D01*
X77947000Y-113593000D01*
X77923000Y-113593000D01*
X77923000Y-115067250D01*
X78081750Y-115226000D01*
X78181361Y-115215404D01*
X78300652Y-115177779D01*
X78410311Y-115117604D01*
X78506123Y-115037193D01*
X78584406Y-114939634D01*
X78640123Y-114832578D01*
X78794866Y-115021134D01*
X79020986Y-115206706D01*
X79278966Y-115344599D01*
X79558889Y-115429513D01*
X79850000Y-115458185D01*
X80141110Y-115429513D01*
X80421033Y-115344599D01*
X80679013Y-115206706D01*
X80905134Y-115021134D01*
X81090706Y-114795014D01*
X81228599Y-114537034D01*
X81313513Y-114257111D01*
X81335000Y-114038950D01*
X81335000Y-112893050D01*
X81313513Y-112674889D01*
X81228599Y-112394966D01*
X81090706Y-112136986D01*
X80905134Y-111910866D01*
X80679014Y-111725294D01*
X80612000Y-111689474D01*
X80612000Y-110742525D01*
X80679013Y-110706706D01*
X80905134Y-110521134D01*
X81090706Y-110295014D01*
X81228599Y-110037034D01*
X81313513Y-109757111D01*
X81335000Y-109538950D01*
X81335000Y-108393050D01*
X81313513Y-108174889D01*
X81228599Y-107894966D01*
X81179714Y-107803509D01*
X108616750Y-107767628D01*
X108616750Y-124644250D01*
G37*
%TD.AperFunction*%
D19*
X87906398Y-126771529D02*
X87993357Y-126842895D01*
X88061373Y-126879250D01*
X88125735Y-126913652D01*
X88269372Y-126957224D01*
X88381324Y-126968250D01*
X88381327Y-126968250D01*
X88418750Y-126971936D01*
X88456173Y-126968250D01*
X88805206Y-126968250D01*
X88851509Y-127006250D01*
X88820437Y-127031750D01*
X87789785Y-127031750D01*
X87833252Y-126950430D01*
X87869562Y-126830732D01*
X87877711Y-126747987D01*
X87906398Y-126771529D01*
%TA.AperFunction,Conductor*%
D22*
G36*
X87906398Y-126771529D02*
G01*
X87993357Y-126842895D01*
X88061373Y-126879250D01*
X88125735Y-126913652D01*
X88269372Y-126957224D01*
X88381324Y-126968250D01*
X88381327Y-126968250D01*
X88418750Y-126971936D01*
X88456173Y-126968250D01*
X88805206Y-126968250D01*
X88851509Y-127006250D01*
X88820437Y-127031750D01*
X87789785Y-127031750D01*
X87833252Y-126950430D01*
X87869562Y-126830732D01*
X87877711Y-126747987D01*
X87906398Y-126771529D01*
G37*
%TD.AperFunction*%
D19*
X95377000Y-115873000D02*
X95397000Y-115873000D01*
X95397000Y-116127000D01*
X95377000Y-116127000D01*
X95377000Y-116147000D01*
X95123000Y-116147000D01*
X95123000Y-116127000D01*
X95103000Y-116127000D01*
X95103000Y-115873000D01*
X95123000Y-115873000D01*
X95123000Y-115853000D01*
X95377000Y-115853000D01*
X95377000Y-115873000D01*
%TA.AperFunction,Conductor*%
D22*
G36*
X95377000Y-115873000D02*
G01*
X95397000Y-115873000D01*
X95397000Y-116127000D01*
X95377000Y-116127000D01*
X95377000Y-116147000D01*
X95123000Y-116147000D01*
X95123000Y-116127000D01*
X95103000Y-116127000D01*
X95103000Y-115873000D01*
X95123000Y-115873000D01*
X95123000Y-115853000D01*
X95377000Y-115853000D01*
X95377000Y-115873000D01*
G37*
%TD.AperFunction*%
%TD*%
M02*
