%TF.GenerationSoftware,KiCad,Pcbnew,(5.1.10)-1*%
%TF.CreationDate,2021-05-26T18:35:01+08:00*%
%TF.ProjectId,FirstPCB,46697273-7450-4434-922e-6b696361645f,rev?*%
%TF.SameCoordinates,Original*%
%TF.FileFunction,Soldermask,Bot*%
%TF.FilePolarity,Negative*%
%FSLAX46Y46*%
G04 Gerber Fmt 4.6, Leading zero omitted, Abs format (unit mm)*
G04 Created by KiCad (PCBNEW (5.1.10)-1) date 2021-05-26 18:35:01*
%MOMM*%
%LPD*%
G01*
G04 APERTURE LIST*
%ADD10C,1.750000*%
%ADD11C,2.250000*%
%ADD12C,3.987800*%
%ADD13R,1.200000X0.900000*%
%ADD14R,1.400000X1.200000*%
%ADD15O,1.700000X2.700000*%
%ADD16R,0.500000X2.250000*%
%ADD17R,0.550000X1.500000*%
%ADD18R,1.500000X0.550000*%
%ADD19R,1.800000X1.100000*%
G04 APERTURE END LIST*
D10*
%TO.C,MX3*%
X123348750Y-135731250D03*
X113188750Y-135731250D03*
D11*
X115768750Y-131731250D03*
D12*
X118268750Y-135731250D03*
G36*
G01*
X113707438Y-134028600D02*
X113707433Y-134028595D01*
G75*
G02*
X113621405Y-132439933I751317J837345D01*
G01*
X114931407Y-130979933D01*
G75*
G02*
X116520069Y-130893905I837345J-751317D01*
G01*
X116520069Y-130893905D01*
G75*
G02*
X116606097Y-132482567I-751317J-837345D01*
G01*
X115296095Y-133942567D01*
G75*
G02*
X113707433Y-134028595I-837345J751317D01*
G01*
G37*
D11*
X120808750Y-130651250D03*
G36*
G01*
X120692233Y-132353645D02*
X120691347Y-132353584D01*
G75*
G02*
X119646416Y-131153847I77403J1122334D01*
G01*
X119686416Y-130573847D01*
G75*
G02*
X120886153Y-129528916I1122334J-77403D01*
G01*
X120886153Y-129528916D01*
G75*
G02*
X121931084Y-130728653I-77403J-1122334D01*
G01*
X121891084Y-131308653D01*
G75*
G02*
X120691347Y-132353584I-1122334J77403D01*
G01*
G37*
%TD*%
D10*
%TO.C,MX1*%
X123317000Y-116586000D03*
X113157000Y-116586000D03*
D11*
X115737000Y-112586000D03*
D12*
X118237000Y-116586000D03*
G36*
G01*
X113675688Y-114883350D02*
X113675683Y-114883345D01*
G75*
G02*
X113589655Y-113294683I751317J837345D01*
G01*
X114899657Y-111834683D01*
G75*
G02*
X116488319Y-111748655I837345J-751317D01*
G01*
X116488319Y-111748655D01*
G75*
G02*
X116574347Y-113337317I-751317J-837345D01*
G01*
X115264345Y-114797317D01*
G75*
G02*
X113675683Y-114883345I-837345J751317D01*
G01*
G37*
D11*
X120777000Y-111506000D03*
G36*
G01*
X120660483Y-113208395D02*
X120659597Y-113208334D01*
G75*
G02*
X119614666Y-112008597I77403J1122334D01*
G01*
X119654666Y-111428597D01*
G75*
G02*
X120854403Y-110383666I1122334J-77403D01*
G01*
X120854403Y-110383666D01*
G75*
G02*
X121899334Y-111583403I-77403J-1122334D01*
G01*
X121859334Y-112163403D01*
G75*
G02*
X120659597Y-113208334I-1122334J77403D01*
G01*
G37*
%TD*%
D13*
%TO.C,D2*%
X145034000Y-114904250D03*
X145034000Y-118204250D03*
%TD*%
D14*
%TO.C,Y1*%
X95250000Y-116000000D03*
X97450000Y-116000000D03*
X97450000Y-114300000D03*
X95250000Y-114300000D03*
%TD*%
D15*
%TO.C,USB1*%
X72550000Y-108966000D03*
X79850000Y-108966000D03*
X79850000Y-113466000D03*
X72550000Y-113466000D03*
D16*
X74600000Y-113466000D03*
X75400000Y-113466000D03*
X76200000Y-113466000D03*
X77000000Y-113466000D03*
X77800000Y-113466000D03*
%TD*%
D17*
%TO.C,U1*%
X91662750Y-131906250D03*
X92462750Y-131906250D03*
X93262750Y-131906250D03*
X94062750Y-131906250D03*
X94862750Y-131906250D03*
X95662750Y-131906250D03*
X96462750Y-131906250D03*
X97262750Y-131906250D03*
X98062750Y-131906250D03*
X98862750Y-131906250D03*
X99662750Y-131906250D03*
D18*
X101362750Y-130206250D03*
X101362750Y-129406250D03*
X101362750Y-128606250D03*
X101362750Y-127806250D03*
X101362750Y-127006250D03*
X101362750Y-126206250D03*
X101362750Y-125406250D03*
X101362750Y-124606250D03*
X101362750Y-123806250D03*
X101362750Y-123006250D03*
X101362750Y-122206250D03*
D17*
X99662750Y-120506250D03*
X98862750Y-120506250D03*
X98062750Y-120506250D03*
X97262750Y-120506250D03*
X96462750Y-120506250D03*
X95662750Y-120506250D03*
X94862750Y-120506250D03*
X94062750Y-120506250D03*
X93262750Y-120506250D03*
X92462750Y-120506250D03*
X91662750Y-120506250D03*
D18*
X89962750Y-122206250D03*
X89962750Y-123006250D03*
X89962750Y-123806250D03*
X89962750Y-124606250D03*
X89962750Y-125406250D03*
X89962750Y-126206250D03*
X89962750Y-127006250D03*
X89962750Y-127806250D03*
X89962750Y-128606250D03*
X89962750Y-129406250D03*
X89962750Y-130206250D03*
%TD*%
D19*
%TO.C,SW1*%
X78506250Y-142343750D03*
X72306250Y-138643750D03*
X78506250Y-138643750D03*
X72306250Y-142343750D03*
%TD*%
%TO.C,R4*%
G36*
G01*
X103531249Y-133075000D02*
X104431251Y-133075000D01*
G75*
G02*
X104681250Y-133324999I0J-249999D01*
G01*
X104681250Y-133850001D01*
G75*
G02*
X104431251Y-134100000I-249999J0D01*
G01*
X103531249Y-134100000D01*
G75*
G02*
X103281250Y-133850001I0J249999D01*
G01*
X103281250Y-133324999D01*
G75*
G02*
X103531249Y-133075000I249999J0D01*
G01*
G37*
G36*
G01*
X103531249Y-131250000D02*
X104431251Y-131250000D01*
G75*
G02*
X104681250Y-131499999I0J-249999D01*
G01*
X104681250Y-132025001D01*
G75*
G02*
X104431251Y-132275000I-249999J0D01*
G01*
X103531249Y-132275000D01*
G75*
G02*
X103281250Y-132025001I0J249999D01*
G01*
X103281250Y-131499999D01*
G75*
G02*
X103531249Y-131250000I249999J0D01*
G01*
G37*
%TD*%
%TO.C,R3*%
G36*
G01*
X75062501Y-117868750D02*
X74162499Y-117868750D01*
G75*
G02*
X73912500Y-117618751I0J249999D01*
G01*
X73912500Y-117093749D01*
G75*
G02*
X74162499Y-116843750I249999J0D01*
G01*
X75062501Y-116843750D01*
G75*
G02*
X75312500Y-117093749I0J-249999D01*
G01*
X75312500Y-117618751D01*
G75*
G02*
X75062501Y-117868750I-249999J0D01*
G01*
G37*
G36*
G01*
X75062501Y-119693750D02*
X74162499Y-119693750D01*
G75*
G02*
X73912500Y-119443751I0J249999D01*
G01*
X73912500Y-118918749D01*
G75*
G02*
X74162499Y-118668750I249999J0D01*
G01*
X75062501Y-118668750D01*
G75*
G02*
X75312500Y-118918749I0J-249999D01*
G01*
X75312500Y-119443751D01*
G75*
G02*
X75062501Y-119693750I-249999J0D01*
G01*
G37*
%TD*%
%TO.C,R2*%
G36*
G01*
X77443751Y-117868750D02*
X76543749Y-117868750D01*
G75*
G02*
X76293750Y-117618751I0J249999D01*
G01*
X76293750Y-117093749D01*
G75*
G02*
X76543749Y-116843750I249999J0D01*
G01*
X77443751Y-116843750D01*
G75*
G02*
X77693750Y-117093749I0J-249999D01*
G01*
X77693750Y-117618751D01*
G75*
G02*
X77443751Y-117868750I-249999J0D01*
G01*
G37*
G36*
G01*
X77443751Y-119693750D02*
X76543749Y-119693750D01*
G75*
G02*
X76293750Y-119443751I0J249999D01*
G01*
X76293750Y-118918749D01*
G75*
G02*
X76543749Y-118668750I249999J0D01*
G01*
X77443751Y-118668750D01*
G75*
G02*
X77693750Y-118918749I0J-249999D01*
G01*
X77693750Y-119443751D01*
G75*
G02*
X77443751Y-119693750I-249999J0D01*
G01*
G37*
%TD*%
%TO.C,R1*%
G36*
G01*
X82893749Y-119343750D02*
X83793751Y-119343750D01*
G75*
G02*
X84043750Y-119593749I0J-249999D01*
G01*
X84043750Y-120118751D01*
G75*
G02*
X83793751Y-120368750I-249999J0D01*
G01*
X82893749Y-120368750D01*
G75*
G02*
X82643750Y-120118751I0J249999D01*
G01*
X82643750Y-119593749D01*
G75*
G02*
X82893749Y-119343750I249999J0D01*
G01*
G37*
G36*
G01*
X82893749Y-117518750D02*
X83793751Y-117518750D01*
G75*
G02*
X84043750Y-117768749I0J-249999D01*
G01*
X84043750Y-118293751D01*
G75*
G02*
X83793751Y-118543750I-249999J0D01*
G01*
X82893749Y-118543750D01*
G75*
G02*
X82643750Y-118293751I0J249999D01*
G01*
X82643750Y-117768749D01*
G75*
G02*
X82893749Y-117518750I249999J0D01*
G01*
G37*
%TD*%
D10*
%TO.C,MX4*%
X142303500Y-135572500D03*
X132143500Y-135572500D03*
D11*
X134723500Y-131572500D03*
D12*
X137223500Y-135572500D03*
G36*
G01*
X132662188Y-133869850D02*
X132662183Y-133869845D01*
G75*
G02*
X132576155Y-132281183I751317J837345D01*
G01*
X133886157Y-130821183D01*
G75*
G02*
X135474819Y-130735155I837345J-751317D01*
G01*
X135474819Y-130735155D01*
G75*
G02*
X135560847Y-132323817I-751317J-837345D01*
G01*
X134250845Y-133783817D01*
G75*
G02*
X132662183Y-133869845I-837345J751317D01*
G01*
G37*
D11*
X139763500Y-130492500D03*
G36*
G01*
X139646983Y-132194895D02*
X139646097Y-132194834D01*
G75*
G02*
X138601166Y-130995097I77403J1122334D01*
G01*
X138641166Y-130415097D01*
G75*
G02*
X139840903Y-129370166I1122334J-77403D01*
G01*
X139840903Y-129370166D01*
G75*
G02*
X140885834Y-130569903I-77403J-1122334D01*
G01*
X140845834Y-131149903D01*
G75*
G02*
X139646097Y-132194834I-1122334J77403D01*
G01*
G37*
%TD*%
D10*
%TO.C,MX2*%
X142290500Y-116522500D03*
X132130500Y-116522500D03*
D11*
X134710500Y-112522500D03*
D12*
X137210500Y-116522500D03*
G36*
G01*
X132649188Y-114819850D02*
X132649183Y-114819845D01*
G75*
G02*
X132563155Y-113231183I751317J837345D01*
G01*
X133873157Y-111771183D01*
G75*
G02*
X135461819Y-111685155I837345J-751317D01*
G01*
X135461819Y-111685155D01*
G75*
G02*
X135547847Y-113273817I-751317J-837345D01*
G01*
X134237845Y-114733817D01*
G75*
G02*
X132649183Y-114819845I-837345J751317D01*
G01*
G37*
D11*
X139750500Y-111442500D03*
G36*
G01*
X139633983Y-113144895D02*
X139633097Y-113144834D01*
G75*
G02*
X138588166Y-111945097I77403J1122334D01*
G01*
X138628166Y-111365097D01*
G75*
G02*
X139827903Y-110320166I1122334J-77403D01*
G01*
X139827903Y-110320166D01*
G75*
G02*
X140872834Y-111519903I-77403J-1122334D01*
G01*
X140832834Y-112099903D01*
G75*
G02*
X139633097Y-113144834I-1122334J77403D01*
G01*
G37*
%TD*%
%TO.C,F1*%
G36*
G01*
X72856250Y-122862500D02*
X71606250Y-122862500D01*
G75*
G02*
X71356250Y-122612500I0J250000D01*
G01*
X71356250Y-121862500D01*
G75*
G02*
X71606250Y-121612500I250000J0D01*
G01*
X72856250Y-121612500D01*
G75*
G02*
X73106250Y-121862500I0J-250000D01*
G01*
X73106250Y-122612500D01*
G75*
G02*
X72856250Y-122862500I-250000J0D01*
G01*
G37*
G36*
G01*
X72856250Y-125662500D02*
X71606250Y-125662500D01*
G75*
G02*
X71356250Y-125412500I0J250000D01*
G01*
X71356250Y-124662500D01*
G75*
G02*
X71606250Y-124412500I250000J0D01*
G01*
X72856250Y-124412500D01*
G75*
G02*
X73106250Y-124662500I0J-250000D01*
G01*
X73106250Y-125412500D01*
G75*
G02*
X72856250Y-125662500I-250000J0D01*
G01*
G37*
%TD*%
D13*
%TO.C,D4*%
X145034000Y-133954250D03*
X145034000Y-137254250D03*
%TD*%
%TO.C,D3*%
X125984000Y-133954250D03*
X125984000Y-137254250D03*
%TD*%
%TO.C,D1*%
X125984000Y-114904250D03*
X125984000Y-118204250D03*
%TD*%
%TO.C,C7*%
G36*
G01*
X91887500Y-135412500D02*
X91887500Y-134462500D01*
G75*
G02*
X92137500Y-134212500I250000J0D01*
G01*
X92637500Y-134212500D01*
G75*
G02*
X92887500Y-134462500I0J-250000D01*
G01*
X92887500Y-135412500D01*
G75*
G02*
X92637500Y-135662500I-250000J0D01*
G01*
X92137500Y-135662500D01*
G75*
G02*
X91887500Y-135412500I0J250000D01*
G01*
G37*
G36*
G01*
X89987500Y-135412500D02*
X89987500Y-134462500D01*
G75*
G02*
X90237500Y-134212500I250000J0D01*
G01*
X90737500Y-134212500D01*
G75*
G02*
X90987500Y-134462500I0J-250000D01*
G01*
X90987500Y-135412500D01*
G75*
G02*
X90737500Y-135662500I-250000J0D01*
G01*
X90237500Y-135662500D01*
G75*
G02*
X89987500Y-135412500I0J250000D01*
G01*
G37*
%TD*%
%TO.C,C6*%
G36*
G01*
X99562500Y-134462500D02*
X99562500Y-135412500D01*
G75*
G02*
X99312500Y-135662500I-250000J0D01*
G01*
X98812500Y-135662500D01*
G75*
G02*
X98562500Y-135412500I0J250000D01*
G01*
X98562500Y-134462500D01*
G75*
G02*
X98812500Y-134212500I250000J0D01*
G01*
X99312500Y-134212500D01*
G75*
G02*
X99562500Y-134462500I0J-250000D01*
G01*
G37*
G36*
G01*
X101462500Y-134462500D02*
X101462500Y-135412500D01*
G75*
G02*
X101212500Y-135662500I-250000J0D01*
G01*
X100712500Y-135662500D01*
G75*
G02*
X100462500Y-135412500I0J250000D01*
G01*
X100462500Y-134462500D01*
G75*
G02*
X100712500Y-134212500I250000J0D01*
G01*
X101212500Y-134212500D01*
G75*
G02*
X101462500Y-134462500I0J-250000D01*
G01*
G37*
%TD*%
%TO.C,C5*%
G36*
G01*
X87787500Y-117818750D02*
X86837500Y-117818750D01*
G75*
G02*
X86587500Y-117568750I0J250000D01*
G01*
X86587500Y-117068750D01*
G75*
G02*
X86837500Y-116818750I250000J0D01*
G01*
X87787500Y-116818750D01*
G75*
G02*
X88037500Y-117068750I0J-250000D01*
G01*
X88037500Y-117568750D01*
G75*
G02*
X87787500Y-117818750I-250000J0D01*
G01*
G37*
G36*
G01*
X87787500Y-119718750D02*
X86837500Y-119718750D01*
G75*
G02*
X86587500Y-119468750I0J250000D01*
G01*
X86587500Y-118968750D01*
G75*
G02*
X86837500Y-118718750I250000J0D01*
G01*
X87787500Y-118718750D01*
G75*
G02*
X88037500Y-118968750I0J-250000D01*
G01*
X88037500Y-119468750D01*
G75*
G02*
X87787500Y-119718750I-250000J0D01*
G01*
G37*
%TD*%
%TO.C,C4*%
G36*
G01*
X105250000Y-121787500D02*
X104300000Y-121787500D01*
G75*
G02*
X104050000Y-121537500I0J250000D01*
G01*
X104050000Y-121037500D01*
G75*
G02*
X104300000Y-120787500I250000J0D01*
G01*
X105250000Y-120787500D01*
G75*
G02*
X105500000Y-121037500I0J-250000D01*
G01*
X105500000Y-121537500D01*
G75*
G02*
X105250000Y-121787500I-250000J0D01*
G01*
G37*
G36*
G01*
X105250000Y-123687500D02*
X104300000Y-123687500D01*
G75*
G02*
X104050000Y-123437500I0J250000D01*
G01*
X104050000Y-122937500D01*
G75*
G02*
X104300000Y-122687500I250000J0D01*
G01*
X105250000Y-122687500D01*
G75*
G02*
X105500000Y-122937500I0J-250000D01*
G01*
X105500000Y-123437500D01*
G75*
G02*
X105250000Y-123687500I-250000J0D01*
G01*
G37*
%TD*%
%TO.C,C3*%
G36*
G01*
X86043750Y-125706250D02*
X86993750Y-125706250D01*
G75*
G02*
X87243750Y-125956250I0J-250000D01*
G01*
X87243750Y-126456250D01*
G75*
G02*
X86993750Y-126706250I-250000J0D01*
G01*
X86043750Y-126706250D01*
G75*
G02*
X85793750Y-126456250I0J250000D01*
G01*
X85793750Y-125956250D01*
G75*
G02*
X86043750Y-125706250I250000J0D01*
G01*
G37*
G36*
G01*
X86043750Y-123806250D02*
X86993750Y-123806250D01*
G75*
G02*
X87243750Y-124056250I0J-250000D01*
G01*
X87243750Y-124556250D01*
G75*
G02*
X86993750Y-124806250I-250000J0D01*
G01*
X86043750Y-124806250D01*
G75*
G02*
X85793750Y-124556250I0J250000D01*
G01*
X85793750Y-124056250D01*
G75*
G02*
X86043750Y-123806250I250000J0D01*
G01*
G37*
%TD*%
%TO.C,C2*%
G36*
G01*
X92931000Y-114802500D02*
X91981000Y-114802500D01*
G75*
G02*
X91731000Y-114552500I0J250000D01*
G01*
X91731000Y-114052500D01*
G75*
G02*
X91981000Y-113802500I250000J0D01*
G01*
X92931000Y-113802500D01*
G75*
G02*
X93181000Y-114052500I0J-250000D01*
G01*
X93181000Y-114552500D01*
G75*
G02*
X92931000Y-114802500I-250000J0D01*
G01*
G37*
G36*
G01*
X92931000Y-116702500D02*
X91981000Y-116702500D01*
G75*
G02*
X91731000Y-116452500I0J250000D01*
G01*
X91731000Y-115952500D01*
G75*
G02*
X91981000Y-115702500I250000J0D01*
G01*
X92931000Y-115702500D01*
G75*
G02*
X93181000Y-115952500I0J-250000D01*
G01*
X93181000Y-116452500D01*
G75*
G02*
X92931000Y-116702500I-250000J0D01*
G01*
G37*
%TD*%
%TO.C,C1*%
G36*
G01*
X99918500Y-115702500D02*
X100868500Y-115702500D01*
G75*
G02*
X101118500Y-115952500I0J-250000D01*
G01*
X101118500Y-116452500D01*
G75*
G02*
X100868500Y-116702500I-250000J0D01*
G01*
X99918500Y-116702500D01*
G75*
G02*
X99668500Y-116452500I0J250000D01*
G01*
X99668500Y-115952500D01*
G75*
G02*
X99918500Y-115702500I250000J0D01*
G01*
G37*
G36*
G01*
X99918500Y-113802500D02*
X100868500Y-113802500D01*
G75*
G02*
X101118500Y-114052500I0J-250000D01*
G01*
X101118500Y-114552500D01*
G75*
G02*
X100868500Y-114802500I-250000J0D01*
G01*
X99918500Y-114802500D01*
G75*
G02*
X99668500Y-114552500I0J250000D01*
G01*
X99668500Y-114052500D01*
G75*
G02*
X99918500Y-113802500I250000J0D01*
G01*
G37*
%TD*%
M02*
