%TF.GenerationSoftware,KiCad,Pcbnew,(5.1.10)-1*%
%TF.CreationDate,2021-05-26T18:35:01+08:00*%
%TF.ProjectId,FirstPCB,46697273-7450-4434-922e-6b696361645f,rev?*%
%TF.SameCoordinates,Original*%
%TF.FileFunction,Legend,Top*%
%TF.FilePolarity,Positive*%
%FSLAX46Y46*%
G04 Gerber Fmt 4.6, Leading zero omitted, Abs format (unit mm)*
G04 Created by KiCad (PCBNEW (5.1.10)-1) date 2021-05-26 18:35:01*
%MOMM*%
%LPD*%
G01*
G04 APERTURE LIST*
%ADD10C,0.150000*%
%ADD11C,1.750000*%
%ADD12C,3.987800*%
%ADD13O,1.700000X2.700000*%
G04 APERTURE END LIST*
D10*
X70755952Y-143779761D02*
X70755952Y-141779761D01*
X71232142Y-141779761D01*
X71517857Y-141875000D01*
X71708333Y-142065476D01*
X71803571Y-142255952D01*
X71898809Y-142636904D01*
X71898809Y-142922619D01*
X71803571Y-143303571D01*
X71708333Y-143494047D01*
X71517857Y-143684523D01*
X71232142Y-143779761D01*
X70755952Y-143779761D01*
X72755952Y-143779761D02*
X72755952Y-141779761D01*
X73898809Y-143779761D02*
X73041666Y-142636904D01*
X73898809Y-141779761D02*
X72755952Y-142922619D01*
X76946428Y-142732142D02*
X76279761Y-142732142D01*
X76279761Y-143779761D02*
X76279761Y-141779761D01*
X77232142Y-141779761D01*
X77994047Y-143779761D02*
X77994047Y-142446428D01*
X77994047Y-141779761D02*
X77898809Y-141875000D01*
X77994047Y-141970238D01*
X78089285Y-141875000D01*
X77994047Y-141779761D01*
X77994047Y-141970238D01*
X78946428Y-143779761D02*
X78946428Y-142446428D01*
X78946428Y-142827380D02*
X79041666Y-142636904D01*
X79136904Y-142541666D01*
X79327380Y-142446428D01*
X79517857Y-142446428D01*
X80089285Y-143684523D02*
X80279761Y-143779761D01*
X80660714Y-143779761D01*
X80851190Y-143684523D01*
X80946428Y-143494047D01*
X80946428Y-143398809D01*
X80851190Y-143208333D01*
X80660714Y-143113095D01*
X80375000Y-143113095D01*
X80184523Y-143017857D01*
X80089285Y-142827380D01*
X80089285Y-142732142D01*
X80184523Y-142541666D01*
X80375000Y-142446428D01*
X80660714Y-142446428D01*
X80851190Y-142541666D01*
X81517857Y-142446428D02*
X82279761Y-142446428D01*
X81803571Y-141779761D02*
X81803571Y-143494047D01*
X81898809Y-143684523D01*
X82089285Y-143779761D01*
X82279761Y-143779761D01*
X82946428Y-143779761D02*
X82946428Y-141779761D01*
X83708333Y-141779761D01*
X83898809Y-141875000D01*
X83994047Y-141970238D01*
X84089285Y-142160714D01*
X84089285Y-142446428D01*
X83994047Y-142636904D01*
X83898809Y-142732142D01*
X83708333Y-142827380D01*
X82946428Y-142827380D01*
X86089285Y-143589285D02*
X85994047Y-143684523D01*
X85708333Y-143779761D01*
X85517857Y-143779761D01*
X85232142Y-143684523D01*
X85041666Y-143494047D01*
X84946428Y-143303571D01*
X84851190Y-142922619D01*
X84851190Y-142636904D01*
X84946428Y-142255952D01*
X85041666Y-142065476D01*
X85232142Y-141875000D01*
X85517857Y-141779761D01*
X85708333Y-141779761D01*
X85994047Y-141875000D01*
X86089285Y-141970238D01*
X87613095Y-142732142D02*
X87898809Y-142827380D01*
X87994047Y-142922619D01*
X88089285Y-143113095D01*
X88089285Y-143398809D01*
X87994047Y-143589285D01*
X87898809Y-143684523D01*
X87708333Y-143779761D01*
X86946428Y-143779761D01*
X86946428Y-141779761D01*
X87613095Y-141779761D01*
X87803571Y-141875000D01*
X87898809Y-141970238D01*
X87994047Y-142160714D01*
X87994047Y-142351190D01*
X87898809Y-142541666D01*
X87803571Y-142636904D01*
X87613095Y-142732142D01*
X86946428Y-142732142D01*
%LPC*%
D11*
%TO.C,MX3*%
X123348750Y-135731250D03*
X113188750Y-135731250D03*
D12*
X118268750Y-135731250D03*
%TD*%
D11*
%TO.C,MX1*%
X123317000Y-116586000D03*
X113157000Y-116586000D03*
D12*
X118237000Y-116586000D03*
%TD*%
D13*
%TO.C,USB1*%
X72550000Y-108966000D03*
X79850000Y-108966000D03*
X79850000Y-113466000D03*
X72550000Y-113466000D03*
%TD*%
D11*
%TO.C,MX4*%
X142303500Y-135572500D03*
X132143500Y-135572500D03*
D12*
X137223500Y-135572500D03*
%TD*%
D11*
%TO.C,MX2*%
X142290500Y-116522500D03*
X132130500Y-116522500D03*
D12*
X137210500Y-116522500D03*
%TD*%
M02*
